<svg xmlns="http://www.w3.org/2000/svg" version="1.1" xmlns:xlink="http://www.w3.org/1999/xlink" xmlns:svgjs="http://svgjs.dev/svgjs" width="1000" height="750" viewBox="0 0 1000 750"><rect width="1000" height="750" fill="#000000"></rect><g transform="matrix(0.584,0,0,0.584,207.70800000000003,82.70800000000003)"><svg viewBox="0 0 280 280" data-background-color="#ffffff" preserveAspectRatio="xMidYMid meet" height="1000" width="1000" xmlns="http://www.w3.org/2000/svg" xmlns:xlink="http://www.w3.org/1999/xlink"><g id="tight-bounds" transform="matrix(1,0,0,1,0.13999999999998636,0.13999999999998636)"><svg viewBox="0 0 279.72 279.72" height="279.72" width="279.72"><g><svg viewBox="0 0 279.72 279.72" height="279.72" width="279.72"><g><svg viewBox="0 0 279.72 279.72" height="279.72" width="279.72"><g id="textblocktransform"><svg viewBox="0 0 279.72 279.72" height="279.72" width="279.72" id="textblock"><g><svg viewBox="0 0 279.72 279.72" height="279.72" width="279.72"><g transform="matrix(1,0,0,1,73.92936372216631,99.34193176295578)"><svg viewBox="0 0 131.8612725556674 81.03613647408847" height="81.03613647408847" width="131.8612725556674"><g><svg xmlns="http://www.w3.org/2000/svg" data-name="Layer 1" viewBox="2.430551295781235 20.791724898981606 95.13905147020833 58.4682751010184" x="0" y="0" height="81.03613647408847" width="131.8612725556674" class="icon-kg-0" data-fill-palette-color="accent" id="kg-0"><path d="M62.78 23l32 55.42 1.3-2.26h-64l1.3 2.26L65.37 23a1.5 1.5 0 0 0-2.59-1.51L30.79 77a1.51 1.51 0 0 0 1.3 2.26h64A1.51 1.51 0 0 0 97.37 77l-32-55.42A1.5 1.5 0 0 0 62.78 23Z" fill="#ffffff" data-fill-palette-color="accent"></path><path d="M34.63 23l32 55.42 1.3-2.26h-64l1.3 2.26L37.22 23a1.5 1.5 0 0 0-2.59-1.51L2.63 77a1.51 1.51 0 0 0 1.3 2.26h64A1.51 1.51 0 0 0 69.21 77l-32-55.42A1.5 1.5 0 0 0 34.63 23Z" fill="#ffffff" data-fill-palette-color="accent"></path></svg></g></svg></g><g><path d="M32.201 93.734l-5.339 15.962-26.862-8.985 1.218-3.64 23.558 7.88 4.122-12.322z" fill="#ffffff" data-fill-palette-color="primary"></path><path d="M95.111 34.264v0c-1.081 0.461-2.196 0.841-3.345 1.14-1.149 0.299-2.235 0.516-3.257 0.651-1.028 0.137-1.907 0.193-2.637 0.167v0l-1.116-3.961c0.806 0.031 1.755 0.019 2.847-0.036 1.098-0.057 2.251-0.204 3.456-0.439 1.206-0.235 2.374-0.594 3.505-1.076v0c1.677-0.715 2.875-1.589 3.594-2.622 0.725-1.036 0.811-2.203 0.257-3.501v0c-0.418-0.981-1.01-1.68-1.774-2.095-0.764-0.415-1.739-0.635-2.922-0.658-1.191-0.021-2.633 0.066-4.327 0.259v0c-1.608 0.187-3.138 0.248-4.589 0.184-1.442-0.06-2.735-0.423-3.877-1.088-1.142-0.665-2.058-1.805-2.746-3.419v0c-0.588-1.379-0.751-2.751-0.49-4.118 0.264-1.36 0.958-2.632 2.083-3.817 1.131-1.187 2.702-2.209 4.714-3.067v0c1.714-0.731 3.365-1.215 4.952-1.451 1.593-0.239 2.951-0.334 4.073-0.284v0l1.229 3.913c-1.776-0.241-3.384-0.267-4.823-0.079-1.43 0.192-2.835 0.581-4.214 1.169v0c-1.528 0.651-2.671 1.473-3.429 2.465-0.756 0.998-0.859 2.142-0.309 3.434v0c0.371 0.869 0.898 1.485 1.581 1.847 0.683 0.362 1.549 0.551 2.597 0.566 1.049 0.015 2.316-0.059 3.802-0.223v0c2.04-0.224 3.861-0.266 5.462-0.127 1.603 0.146 2.971 0.583 4.103 1.31 1.133 0.728 2.022 1.85 2.668 3.366v0c0.477 1.118 0.693 2.211 0.65 3.279-0.041 1.074-0.349 2.108-0.923 3.101-0.574 0.994-1.427 1.929-2.557 2.808-1.124 0.876-2.537 1.676-4.238 2.402z" fill="#ffffff" data-fill-palette-color="primary"></path><path d="M192.031 37.775v0c-1.055-0.516-2.072-1.112-3.049-1.785-0.978-0.674-1.852-1.354-2.622-2.039-0.776-0.688-1.393-1.317-1.85-1.886v0l2.267-3.435c0.504 0.63 1.133 1.34 1.889 2.131 0.762 0.794 1.626 1.57 2.592 2.329 0.967 0.759 2.002 1.408 3.105 1.948v0c1.637 0.801 3.082 1.136 4.334 1.005 1.258-0.128 2.197-0.826 2.818-2.094v0c0.469-0.958 0.611-1.862 0.425-2.712-0.185-0.85-0.656-1.731-1.413-2.642-0.763-0.914-1.771-1.949-3.025-3.104v0c-1.193-1.095-2.24-2.212-3.14-3.352-0.897-1.131-1.468-2.346-1.711-3.645-0.244-1.299 0.021-2.737 0.792-4.314v0c0.659-1.346 1.591-2.367 2.796-3.063 1.202-0.69 2.618-0.996 4.249-0.919 1.637 0.08 3.438 0.6 5.403 1.562v0c1.674 0.819 3.119 1.752 4.336 2.798 1.223 1.049 2.182 2.015 2.878 2.897v0l-2.158 3.488c-0.979-1.501-2.01-2.735-3.093-3.701-1.08-0.957-2.293-1.765-3.64-2.424v0c-1.492-0.73-2.861-1.058-4.107-0.984-1.249 0.08-2.183 0.751-2.8 2.012v0c-0.415 0.849-0.537 1.65-0.364 2.403 0.172 0.753 0.596 1.532 1.269 2.336 0.674 0.803 1.559 1.714 2.655 2.731v0c1.503 1.397 2.726 2.747 3.667 4.049 0.938 1.308 1.502 2.629 1.691 3.962 0.189 1.333-0.078 2.739-0.802 4.219v0c-0.534 1.092-1.22 1.97-2.056 2.636-0.84 0.671-1.823 1.115-2.951 1.329-1.127 0.215-2.393 0.182-3.796-0.099-1.397-0.278-2.927-0.824-4.588-1.637z" fill="#ffffff" data-fill-palette-color="primary"></path><path d="M252.857 109.617l-1.217-3.64 26.863-8.981 1.217 3.64z" fill="#ffffff" data-fill-palette-color="primary"></path><path d="M14.956 184.145l-1.746-6.042 10.166-2.939 0.4 1.382-8.922 2.579 1.348 4.66z" fill="#ffffff" data-fill-palette-color="primary"></path><path d="M21.734 190.425l-1.214 0.456-1.593-4.237 1.214-0.456zM18.121 192.616l7.445-6.272 0.146 0.389-9.729 0.195-0.534-1.422 11.242-0.169 0.531 1.413-8.57 7.278z" fill="#ffffff" data-fill-palette-color="primary"></path><path d="M21.364 199.989l-1.675-3.621 9.604-4.444 1.403 3.033c0.397 0.858 0.513 1.623 0.348 2.294-0.159 0.669-0.634 1.186-1.425 1.552v0c-0.533 0.247-1.056 0.347-1.567 0.301-0.518-0.043-0.946-0.269-1.285-0.678v0l0.31 0.091c0.199 0.719 0.17 1.357-0.085 1.914-0.253 0.563-0.744 1.014-1.473 1.351v0c-0.839 0.388-1.629 0.426-2.368 0.114-0.749-0.316-1.344-0.951-1.787-1.907zM24.722 195.623l-3.253 1.506 1.021 2.205c0.247 0.533 0.577 0.893 0.991 1.082 0.411 0.197 0.886 0.17 1.425-0.08v0c0.6-0.278 0.951-0.637 1.052-1.078 0.098-0.432 0.026-0.908-0.215-1.429v0zM28.73 193.769l-2.831 1.31 0.723 1.562c0.215 0.466 0.486 0.802 0.812 1.008 0.32 0.209 0.765 0.182 1.335-0.082v0c0.564-0.261 0.872-0.582 0.926-0.964 0.054-0.382-0.027-0.806-0.242-1.272v0z" fill="#ffffff" data-fill-palette-color="primary"></path><path d="M26.352 209.741v0c-0.503-0.871-0.755-1.759-0.754-2.663-0.003-0.91 0.24-1.764 0.73-2.562 0.49-0.798 1.218-1.475 2.183-2.032v0c0.97-0.561 1.924-0.854 2.86-0.88 0.936-0.026 1.798 0.19 2.584 0.647 0.778 0.455 1.418 1.119 1.921 1.99v0c0.506 0.877 0.763 1.766 0.768 2.667 0 0.904-0.244 1.758-0.73 2.562-0.49 0.798-1.221 1.477-2.191 2.037v0c-0.965 0.557-1.915 0.849-2.852 0.875-0.939 0.02-1.801-0.196-2.584-0.647-0.783-0.452-1.428-1.116-1.935-1.994zM27.554 209.048v0c0.409 0.707 0.906 1.204 1.491 1.489 0.595 0.288 1.229 0.393 1.902 0.316 0.676-0.071 1.345-0.297 2.006-0.678v0c0.666-0.385 1.199-0.853 1.599-1.403 0.403-0.544 0.625-1.145 0.667-1.801 0.046-0.65-0.136-1.329-0.544-2.036v0c-0.405-0.702-0.901-1.195-1.487-1.481-0.589-0.291-1.22-0.398-1.893-0.321-0.676 0.071-1.348 0.299-2.014 0.684v0c-0.661 0.382-1.191 0.848-1.59 1.398-0.403 0.544-0.628 1.146-0.677 1.805-0.046 0.65 0.134 1.326 0.54 2.028z" fill="#ffffff" data-fill-palette-color="primary"></path><path d="M31.769 217.971l-0.872-1.243 8.664-6.077 1.971 2.811c0.423 0.602 0.697 1.193 0.823 1.773 0.13 0.585 0.087 1.135-0.129 1.649-0.212 0.52-0.623 0.993-1.231 1.42v0c-0.597 0.419-1.184 0.64-1.76 0.665-0.58 0.019-1.159-0.136-1.736-0.465v0l-2.229 4.458-1.006-1.434 2.141-4.124c-0.008-0.011-0.014-0.019-0.017-0.025-0.008-0.011-0.015-0.022-0.023-0.033v0l-1.222-1.741zM39.38 212.633l-3.184 2.233 1.094 1.559c0.411 0.586 0.865 0.927 1.361 1.024 0.491 0.101 0.986-0.023 1.483-0.372v0c0.503-0.353 0.788-0.775 0.855-1.268 0.067-0.492-0.105-1.031-0.516-1.617v0z" fill="#ffffff" data-fill-palette-color="primary"></path><path d="M46.809 230.079l-0.965 0.865-3.022-3.37 0.965-0.866zM44.238 233.431l4.661-8.545 0.277 0.309-8.994 3.712-1.015-1.131 10.415-4.237 1.007 1.123-5.344 9.893z" fill="#ffffff" data-fill-palette-color="primary"></path><path d="M48.113 237.358l-1.04-0.993 7.309-7.653 1.128 1.077-1.698 9.329 5.469-5.727 1.048 1.001-7.31 7.652-0.886-0.846 1.75-9.882z" fill="#ffffff" data-fill-palette-color="primary"></path><path d="M58.996 246.844l-3.078-2.426 6.551-8.312 3.078 2.426c0.801 0.631 1.382 1.355 1.743 2.173 0.367 0.822 0.48 1.681 0.341 2.577-0.134 0.9-0.545 1.788-1.235 2.663v0c-0.69 0.875-1.454 1.48-2.294 1.815-0.839 0.345-1.701 0.435-2.586 0.271-0.879-0.16-1.72-0.556-2.52-1.187zM62.789 238.022l-4.939 6.268 1.949 1.536c0.631 0.497 1.266 0.783 1.904 0.856 0.638 0.073 1.253-0.035 1.843-0.327 0.589-0.301 1.128-0.761 1.617-1.381v0c0.489-0.62 0.811-1.252 0.966-1.896 0.149-0.647 0.114-1.273-0.107-1.876-0.225-0.598-0.653-1.146-1.284-1.644v0z" fill="#ffffff" data-fill-palette-color="primary"></path><path d="M71.959 256.053v0c-0.375-0.228-0.733-0.484-1.073-0.77-0.34-0.285-0.643-0.568-0.907-0.847-0.265-0.279-0.474-0.533-0.629-0.76v0l0.967-1.202c0.164 0.25 0.374 0.535 0.629 0.856 0.255 0.321 0.549 0.637 0.881 0.949 0.334 0.321 0.697 0.601 1.09 0.839v0c0.577 0.35 1.104 0.524 1.58 0.521 0.47-0.007 0.844-0.238 1.12-0.694v0c0.207-0.341 0.288-0.67 0.245-0.989-0.04-0.324-0.186-0.67-0.438-1.036-0.252-0.366-0.59-0.785-1.015-1.255v0c-0.409-0.446-0.76-0.895-1.052-1.35-0.302-0.452-0.474-0.923-0.516-1.415-0.051-0.489 0.094-1.013 0.434-1.573v0c0.291-0.479 0.672-0.828 1.144-1.046 0.472-0.219 1.011-0.287 1.617-0.204 0.602 0.089 1.252 0.345 1.95 0.769v0c0.594 0.361 1.101 0.755 1.52 1.183 0.419 0.428 0.743 0.818 0.972 1.171v0l-0.923 1.228c-0.312-0.592-0.653-1.084-1.024-1.474-0.367-0.397-0.791-0.74-1.27-1.032v0c-0.531-0.322-1.029-0.49-1.494-0.504-0.469-0.008-0.838 0.21-1.108 0.654v0c-0.182 0.3-0.255 0.596-0.219 0.887 0.04 0.285 0.173 0.587 0.399 0.905 0.222 0.324 0.519 0.694 0.89 1.109v0c0.517 0.567 0.925 1.11 1.225 1.632 0.309 0.519 0.475 1.027 0.498 1.522 0.025 0.505-0.122 1.02-0.441 1.545v0c-0.235 0.387-0.519 0.692-0.852 0.917-0.336 0.215-0.716 0.347-1.141 0.397-0.427 0.041-0.896-0.014-1.404-0.165-0.514-0.154-1.066-0.41-1.655-0.768z" fill="#ffffff" data-fill-palette-color="primary"></path><path d="M82.279 261.604v0c-0.902-0.445-1.605-1.043-2.107-1.795-0.509-0.755-0.781-1.6-0.817-2.536-0.036-0.936 0.193-1.903 0.685-2.902v0c0.495-1.005 1.125-1.779 1.888-2.321 0.764-0.542 1.6-0.841 2.509-0.898 0.899-0.054 1.8 0.142 2.702 0.586v0c0.908 0.448 1.615 1.044 2.122 1.79 0.503 0.752 0.775 1.597 0.816 2.536 0.036 0.936-0.194 1.906-0.689 2.912v0c-0.492 0.999-1.12 1.77-1.884 2.312-0.77 0.539-1.606 0.838-2.508 0.898-0.902 0.06-1.808-0.134-2.717-0.582zM82.892 260.359v0c0.733 0.361 1.422 0.497 2.068 0.409 0.655-0.091 1.24-0.356 1.757-0.794 0.523-0.435 0.953-0.994 1.29-1.678v0c0.34-0.69 0.523-1.375 0.55-2.055 0.032-0.677-0.116-1.299-0.446-1.868-0.323-0.566-0.852-1.029-1.585-1.39v0c-0.727-0.358-1.413-0.493-2.058-0.405-0.652 0.085-1.236 0.347-1.753 0.785-0.523 0.435-0.954 0.998-1.294 1.688v0c-0.337 0.684-0.519 1.366-0.545 2.046-0.032 0.677 0.115 1.302 0.441 1.877 0.323 0.566 0.848 1.028 1.575 1.385z" fill="#ffffff" data-fill-palette-color="primary"></path><path d="M94.278 266.779v0c-0.958-0.369-1.73-0.908-2.318-1.618-0.587-0.711-0.951-1.534-1.089-2.47-0.133-0.934 0.001-1.92 0.401-2.96v0c0.402-1.046 0.969-1.87 1.699-2.471 0.731-0.601 1.558-0.967 2.483-1.096 0.916-0.125 1.859-0.001 2.83 0.373v0c0.504 0.194 0.962 0.432 1.375 0.713 0.412 0.282 0.759 0.574 1.04 0.878v0l-0.618 1.184c-0.287-0.306-0.62-0.597-0.999-0.873-0.376-0.282-0.804-0.515-1.282-0.699v0c-0.775-0.298-1.491-0.375-2.147-0.23-0.665 0.149-1.247 0.468-1.746 0.956-0.499 0.488-0.889 1.098-1.17 1.828v0c-0.279 0.725-0.397 1.435-0.354 2.132 0.037 0.694 0.249 1.318 0.636 1.873 0.387 0.554 0.965 0.979 1.734 1.274v0c0.491 0.189 0.966 0.31 1.423 0.363 0.457 0.053 0.907 0.06 1.348 0.02v0l-0.334 1.293c-0.416 0.028-0.865 0.011-1.347-0.052-0.482-0.063-1.004-0.202-1.565-0.418z" fill="#ffffff" data-fill-palette-color="primary"></path><path d="M101.158 268.95l-1.368-0.443 3.26-10.068 1.368 0.443z" fill="#ffffff" data-fill-palette-color="primary"></path><path d="M111.22 267.283l-0.314 1.257-4.392-1.098 0.315-1.257zM110.969 271.5l-0.927-9.69 0.403 0.101-5.37 8.115-1.474-0.369 6.252-9.345 1.464 0.366 1.116 11.188z" fill="#ffffff" data-fill-palette-color="primary"></path><path d="M121.124 273.443l-6.192-1.097 1.846-10.421 1.416 0.251-1.62 9.144 4.776 0.847z" fill="#ffffff" data-fill-palette-color="primary"></path><path d="M131.125 274.61v0c-0.438-0.03-0.873-0.094-1.306-0.192-0.433-0.098-0.831-0.21-1.195-0.336-0.363-0.127-0.666-0.256-0.907-0.388v0l0.307-1.511c0.261 0.147 0.578 0.304 0.952 0.471 0.374 0.168 0.78 0.314 1.218 0.44 0.444 0.132 0.895 0.214 1.354 0.245v0c0.674 0.046 1.221-0.041 1.642-0.262 0.415-0.222 0.64-0.599 0.677-1.131v0c0.027-0.397-0.051-0.728-0.236-0.99-0.184-0.27-0.472-0.51-0.864-0.72-0.392-0.21-0.884-0.426-1.478-0.65v0c-0.568-0.208-1.086-0.447-1.554-0.716-0.476-0.263-0.845-0.603-1.107-1.021-0.269-0.411-0.382-0.943-0.337-1.596v0c0.039-0.559 0.218-1.044 0.537-1.455 0.319-0.411 0.767-0.719 1.343-0.923 0.575-0.197 1.27-0.268 2.085-0.211v0c0.694 0.048 1.325 0.166 1.894 0.354 0.569 0.188 1.036 0.386 1.401 0.594v0l-0.257 1.515c-0.549-0.383-1.078-0.663-1.587-0.841-0.508-0.184-1.042-0.295-1.601-0.333v0c-0.62-0.043-1.139 0.036-1.559 0.237-0.42 0.208-0.648 0.571-0.684 1.09v0c-0.024 0.35 0.047 0.646 0.212 0.888 0.167 0.235 0.423 0.442 0.77 0.621 0.346 0.186 0.779 0.379 1.3 0.577v0c0.719 0.266 1.332 0.562 1.837 0.888 0.513 0.32 0.893 0.694 1.14 1.124 0.254 0.437 0.36 0.962 0.318 1.575v0c-0.031 0.451-0.143 0.853-0.337 1.205-0.2 0.345-0.477 0.637-0.832 0.877-0.361 0.232-0.802 0.398-1.323 0.497-0.528 0.099-1.135 0.125-1.823 0.078z" fill="#ffffff" data-fill-palette-color="primary"></path><path d="M144.769 274.673l-6.593 0.027-0.043-10.583 6.461-0.026 0.006 1.306-5.023 0.021 0.012 3.098 3.99-0.016 0.006 1.296-3.99 0.017 0.014 3.585 5.155-0.021z" fill="#ffffff" data-fill-palette-color="primary"></path><path d="M152.365 274.286v0c-1.023 0.084-1.953-0.066-2.791-0.451-0.838-0.385-1.523-0.968-2.055-1.75-0.525-0.783-0.834-1.73-0.925-2.84v0c-0.092-1.117 0.06-2.105 0.456-2.965 0.396-0.859 0.983-1.548 1.76-2.065 0.771-0.511 1.674-0.809 2.71-0.895v0c0.538-0.044 1.054-0.03 1.548 0.045 0.494 0.074 0.933 0.187 1.319 0.338v0l-0.042 1.335c-0.392-0.151-0.818-0.268-1.279-0.352-0.461-0.091-0.948-0.115-1.459-0.073v0c-0.828 0.068-1.505 0.311-2.034 0.727-0.534 0.423-0.92 0.963-1.156 1.62-0.237 0.656-0.323 1.375-0.259 2.155v0c0.064 0.774 0.267 1.465 0.608 2.074 0.335 0.609 0.797 1.079 1.387 1.41 0.59 0.331 1.295 0.462 2.115 0.394v0c0.525-0.043 1.005-0.141 1.44-0.292 0.435-0.151 0.842-0.341 1.223-0.568v0l0.26 1.309c-0.362 0.206-0.774 0.386-1.235 0.539-0.462 0.153-0.992 0.255-1.591 0.304z" fill="#ffffff" data-fill-palette-color="primary"></path><path d="M162.42 272.904v0c-0.979 0.163-1.819 0.112-2.521-0.155-0.703-0.273-1.268-0.73-1.696-1.37-0.428-0.64-0.722-1.437-0.881-2.389v0l-1.003-6.013 1.419-0.237 0.937 5.624c0.08 0.479 0.194 0.936 0.342 1.37 0.154 0.433 0.361 0.809 0.619 1.129 0.259 0.32 0.598 0.55 1.019 0.693 0.422 0.149 0.939 0.172 1.552 0.069v0c0.619-0.103 1.104-0.294 1.455-0.571 0.345-0.27 0.592-0.598 0.739-0.986 0.14-0.393 0.209-0.819 0.208-1.277-0.001-0.458-0.041-0.924-0.12-1.396v0l-0.938-5.624 1.419-0.237 1.002 6.014c0.159 0.952 0.139 1.801-0.058 2.545-0.198 0.745-0.584 1.36-1.16 1.847-0.577 0.48-1.355 0.801-2.334 0.964z" fill="#ffffff" data-fill-palette-color="primary"></path><path d="M171.678 270.735l-1.47 0.382-2.662-10.243 3.323-0.863c0.712-0.185 1.362-0.235 1.949-0.151 0.594 0.083 1.094 0.316 1.5 0.698 0.413 0.381 0.713 0.931 0.899 1.65v0c0.183 0.706 0.186 1.333 0.008 1.881-0.185 0.55-0.532 1.038-1.043 1.464v0l3.397 3.648-1.696 0.441-3.114-3.449c-0.013 0.003-0.023 0.006-0.03 0.007-0.013 0.003-0.026 0.007-0.039 0.01v0l-2.058 0.535zM169.34 261.737l0.978 3.764 1.843-0.479c0.693-0.18 1.171-0.486 1.435-0.918 0.266-0.425 0.323-0.931 0.171-1.519v0c-0.155-0.595-0.451-1.009-0.889-1.245-0.438-0.235-1.003-0.262-1.695-0.082v0z" fill="#ffffff" data-fill-palette-color="primary"></path><path d="M181.495 267.926l-1.37 0.438-3.221-10.081 1.37-0.438z" fill="#ffffff" data-fill-palette-color="primary"></path><path d="M188.203 265.397l-1.34 0.522-3.367-8.644-2.878 1.122-0.474-1.218 7.086-2.76 0.474 1.217-2.868 1.117z" fill="#ffffff" data-fill-palette-color="primary"></path><path d="M196.943 261.519l-1.296 0.622-1.981-4.127-5.958-3.802 1.47-0.705 5.056 3.28-0.602 0.289 0.613-6.001 1.47-0.705-0.752 7.022z" fill="#ffffff" data-fill-palette-color="primary"></path><path d="M207.407 255.945l-1.242 0.724-5.326-9.145 1.243-0.724z" fill="#ffffff" data-fill-palette-color="primary"></path><path d="M211.663 253.187l-1.194 0.802-5.903-8.783 1.295-0.87 8.746 3.664-4.417-6.573 1.202-0.808 5.902 8.784-1.017 0.683-9.274-3.833z" fill="#ffffff" data-fill-palette-color="primary"></path><path d="M222.71 245.363v0c-0.341 0.276-0.703 0.526-1.087 0.75-0.384 0.224-0.752 0.413-1.104 0.567-0.352 0.155-0.662 0.266-0.928 0.335v0l-0.805-1.317c0.291-0.07 0.63-0.171 1.018-0.303 0.388-0.132 0.785-0.301 1.192-0.508 0.415-0.206 0.801-0.453 1.158-0.742v0c0.525-0.425 0.866-0.862 1.024-1.31 0.152-0.445 0.061-0.874-0.275-1.289v0c-0.251-0.31-0.533-0.498-0.847-0.565-0.319-0.072-0.693-0.051-1.123 0.062-0.43 0.113-0.938 0.29-1.525 0.53v0c-0.558 0.234-1.1 0.412-1.626 0.535-0.528 0.132-1.029 0.134-1.506 0.006-0.477-0.118-0.922-0.431-1.333-0.939v0c-0.353-0.436-0.552-0.913-0.598-1.432-0.046-0.518 0.072-1.048 0.354-1.589 0.287-0.536 0.748-1.061 1.383-1.576v0c0.541-0.437 1.083-0.781 1.628-1.03 0.545-0.25 1.021-0.423 1.43-0.519v0l0.844 1.284c-0.663 0.093-1.241 0.248-1.734 0.465-0.498 0.212-0.964 0.494-1.399 0.846v0c-0.483 0.391-0.809 0.803-0.98 1.236-0.166 0.439-0.086 0.86 0.241 1.264v0c0.221 0.273 0.474 0.441 0.76 0.505 0.282 0.059 0.611 0.036 0.987-0.069 0.38-0.099 0.828-0.254 1.345-0.463v0c0.708-0.295 1.358-0.495 1.95-0.601 0.593-0.115 1.127-0.1 1.6 0.047 0.484 0.147 0.919 0.459 1.306 0.937v0c0.285 0.352 0.476 0.722 0.574 1.111 0.089 0.389 0.085 0.791-0.012 1.209-0.106 0.416-0.316 0.838-0.631 1.265-0.319 0.432-0.746 0.865-1.281 1.298z" fill="#ffffff" data-fill-palette-color="primary"></path><path d="M230.517 238.177l-1.045 0.988-6.374-6.74-2.244 2.122-0.898-0.949 5.526-5.226 0.898 0.95-2.237 2.115z" fill="#ffffff" data-fill-palette-color="primary"></path><path d="M235.55 233.172l-0.998 1.035-7.623-7.34 0.998-1.036z" fill="#ffffff" data-fill-palette-color="primary"></path><path d="M240.252 227.76l-0.931 1.096-7.069-6.007-2 2.354-0.996-0.846 4.926-5.796 0.995 0.846-1.994 2.346z" fill="#ffffff" data-fill-palette-color="primary"></path><path d="M246.548 219.948v0c-0.584 0.803-1.219 1.355-1.906 1.656-0.692 0.298-1.416 0.368-2.17 0.212-0.754-0.157-1.522-0.519-2.303-1.087v0l-4.93-3.586 0.846-1.163 4.611 3.354c0.393 0.286 0.794 0.532 1.204 0.738 0.413 0.201 0.824 0.324 1.232 0.371 0.408 0.047 0.813-0.027 1.213-0.22 0.405-0.19 0.79-0.535 1.155-1.038v0c0.369-0.508 0.582-0.983 0.638-1.427 0.057-0.434 0.003-0.841-0.164-1.221-0.176-0.378-0.424-0.73-0.746-1.057-0.322-0.326-0.677-0.63-1.065-0.912v0l-4.61-3.354 0.846-1.163 4.93 3.587c0.781 0.568 1.362 1.187 1.742 1.856 0.381 0.67 0.537 1.38 0.467 2.13-0.076 0.747-0.405 1.521-0.99 2.324z" fill="#ffffff" data-fill-palette-color="primary"></path><path d="M252.674 210.176l-0.739 1.233-7.956-4.77-1.588 2.649-1.121-0.672 3.911-6.523 1.121 0.672-1.584 2.641z" fill="#ffffff" data-fill-palette-color="primary"></path><path d="M258.508 199.32l-3.006 5.868-9.419-4.824 2.945-5.751 1.163 0.596-2.29 4.471 2.759 1.412 1.818-3.551 1.154 0.591-1.819 3.551 3.191 1.634 2.35-4.588z" fill="#ffffff" data-fill-palette-color="primary"></path><path d="M261.995 191.132l-0.542 1.332-9.804-3.983 0.541-1.332z" fill="#ffffff" data-fill-palette-color="primary"></path><path d="M263.624 186.698l-0.555 1.534-1.505-0.545 0.555-1.533z" fill="#ffffff" data-fill-palette-color="primary"></path><path d="M265.42 180.936l-0.42 1.376-8.872-2.71-0.902 2.954-1.249-0.381 2.221-7.274 1.249 0.382-0.899 2.944z" fill="#ffffff" data-fill-palette-color="primary"></path><path d="M1.225 142.771c0-6.095 4.941-11.037 11.037-11.037 6.095 0 11.037 4.941 11.037 11.037 0 6.095-4.941 11.037-11.037 11.037-6.095 0-11.037-4.941-11.037-11.037z" fill="#ffffff" data-fill-palette-color="primary"></path><path d="M256.174 142.771c0-6.095 4.941-11.037 11.037-11.037 6.095 0 11.037 4.941 11.037 11.037 0 6.095-4.941 11.037-11.037 11.037-6.095 0-11.037-4.941-11.037-11.037z" fill="#ffffff" data-fill-palette-color="primary"></path></g></svg></g></svg></g></svg></g><g></g></svg></g><defs></defs></svg><rect width="279.72" height="279.72" fill="none" stroke="none" visibility="hidden"></rect></g></svg></g></svg>