<svg xmlns="http://www.w3.org/2000/svg" version="1.1" xmlns:xlink="http://www.w3.org/1999/xlink" xmlns:svgjs="http://svgjs.dev/svgjs" width="1000" height="623" viewBox="0 0 1000 623"><g transform="matrix(1,0,0,1,-0.6060606060606233,0.2522267206477409)"><svg viewBox="0 0 396 247" data-background-color="#ffffff" preserveAspectRatio="xMidYMid meet" height="623" width="1000" xmlns="http://www.w3.org/2000/svg" xmlns:xlink="http://www.w3.org/1999/xlink"><g id="tight-bounds" transform="matrix(1,0,0,1,0.2400000000000091,-0.09999999999999432)"><svg viewBox="0 0 395.52 247.2" height="247.2" width="395.52"><g><svg></svg></g><g><svg viewBox="0 0 395.52 247.2" height="247.2" width="395.52"><mask id="c6ecf7b2-3edf-49da-a01d-adaf1554d8f7"><rect width="640" height="400" fill="white"></rect><g transform="matrix(1,0,0,1,49.68134177994452,37.08)"><svg viewBox="0 0 296.15731644011095 173.04" height="173.04" width="296.15731644011095"><g><svg viewBox="0 0 296.15731644011095 173.04" height="173.04" width="296.15731644011095"><g><svg viewBox="0 0 316.416 184.87682593204514" height="173.04" width="296.15731644011095"><g><svg viewBox="0 0 316.416 184.87682593204514" height="184.87682593204514" width="316.416"><g id="SvgjsG2482"><svg viewBox="0 0 316.416 184.87682593204514" height="184.87682593204514" width="316.416" id="SvgjsSvg2481"><g><svg viewBox="0 0 316.416 136.4554919933738" height="136.4554919933738" width="316.416"><g transform="matrix(1,0,0,1,0,0)"><svg width="316.416" viewBox="-1 -36.04999923706055 91.54000091552734 40.04999923706055" height="136.4554919933738" data-palette-color="url(#8a264664-11a1-4e8f-bb8c-49626436ebdc)"><path d="M9.6 0L3.5 0 3.5-27.7 3-31.7 9.6-31.7 9.6 0ZM35.4 0L21.25 0Q17.9 0 16.5-0.35 15.1-0.7 15.1-1.05L15.1-1.05 16.6-4.8Q18.05-4.65 21.92-4.48 25.8-4.3 31.5-4.3L31.5-4.3 34-4.3Q35.25-4.3 35.57-4.98 35.9-5.65 35.9-6.8L35.9-6.8Q35.9-7.95 35.52-8.65 35.15-9.35 34-9.35L34-9.35 21.7-9.35Q18.2-9.35 16.65-10.68 15.1-12 15.1-14.65L15.1-14.65 15.1-16.65Q15.1-17.35 15.25-18.3 15.4-19.25 16-20.2 16.6-21.15 17.95-21.78 19.3-22.4 21.7-22.4L21.7-22.4 35.5-22.4Q38.5-22.4 39.75-22.05 41-21.7 41-21.35L41-21.35 40.5-17.6Q39.05-17.75 35.15-17.93 31.25-18.1 25.6-18.1L25.6-18.1 23.1-18.1Q21.85-18.1 21.52-17.43 21.2-16.75 21.2-15.85L21.2-15.85Q21.2-14.9 21.52-14.28 21.85-13.65 23.1-13.65L23.1-13.65 35.4-13.65Q38.8-13.65 40.4-12.25 42-10.85 42-8.7L42-8.7 42-5.75Q42-4.85 41.87-3.85 41.75-2.85 41.15-1.98 40.55-1.1 39.2-0.55 37.85 0 35.4 0L35.4 0ZM67.3 0L53.15 0Q49.8 0 48.4-0.35 47-0.7 47-1.05L47-1.05 48.5-4.8Q49.95-4.65 53.82-4.48 57.7-4.3 63.4-4.3L63.4-4.3 65.9-4.3Q67.15-4.3 67.47-4.98 67.8-5.65 67.8-6.8L67.8-6.8Q67.8-7.95 67.42-8.65 67.05-9.35 65.9-9.35L65.9-9.35 53.6-9.35Q50.1-9.35 48.55-10.68 47-12 47-14.65L47-14.65 47-16.65Q47-17.35 47.15-18.3 47.3-19.25 47.9-20.2 48.5-21.15 49.85-21.78 51.2-22.4 53.6-22.4L53.6-22.4 67.4-22.4Q70.4-22.4 71.65-22.05 72.9-21.7 72.9-21.35L72.9-21.35 72.4-17.6Q70.95-17.75 67.05-17.93 63.15-18.1 57.5-18.1L57.5-18.1 55-18.1Q53.75-18.1 53.42-17.43 53.1-16.75 53.1-15.85L53.1-15.85Q53.1-14.9 53.42-14.28 53.75-13.65 55-13.65L55-13.65 67.3-13.65Q70.7-13.65 72.3-12.25 73.9-10.85 73.9-8.7L73.9-8.7 73.9-5.75Q73.9-4.85 73.77-3.85 73.65-2.85 73.05-1.98 72.45-1.1 71.09-0.55 69.75 0 67.3 0L67.3 0ZM82.94-25.55L82.94-25.55Q81.09-25.55 80.24-26.3 79.39-27.05 79.39-28.8L79.39-28.8Q79.39-30.6 80.22-31.33 81.04-32.05 82.94-32.05L82.94-32.05Q84.84-32.05 85.69-31.33 86.54-30.6 86.54-28.8L86.54-28.8Q86.54-27.1 85.69-26.33 84.84-25.55 82.94-25.55ZM85.99 0L79.89 0 79.89-22.4 85.99-22.4 85.99 0Z" opacity="1" transform="matrix(1,0,0,1,0,0)" fill="black" class="wordmark-text-0" id="SvgjsPath2480" stroke-width="7" stroke="black" stroke-linejoin="round"></path></svg></g></svg></g><g transform="matrix(1,0,0,1,3.5,162.89478594028492)"><svg viewBox="0 0 309.416 21.982039991760217" height="21.982039991760217" width="309.416"><g transform="matrix(1,0,0,1,0,0)"><svg width="309.416" viewBox="-3.759999990463257 -35.8799991607666 678.8300170898438 49.15999984741211" height="21.982039991760217" data-palette-color="#ff4136"><path d="M0.24 0L11.91 0 12.21-1.95 8.33-2.83 8.33-31.13 7.71-31.71 0.68-31.18 0.39-29.32 4.25-28 4.25-2.83 0.51-1.93 0.24 0ZM18.38 0.59Q21.02 0.59 22.69-0.62 24.36-1.83 25.07-3.2L25.07-3.2 25.34-3.2 25.34-2.83Q25.34-2.03 25.72-1.28 26.1-0.54 26.95-0.05 27.81 0.44 29.12 0.44L29.12 0.44Q30.15 0.44 31.32 0.17L31.32 0.17Q32.08 0.02 32.44-0.02L32.44-0.02 32.76-2.12 31.54-2.34Q30.39-2.54 29.82-2.87 29.25-3.2 29.03-3.82 28.81-4.44 28.81-5.62L28.81-5.62 28.81-14.48Q28.81-18.38 27.4-20.18 26-21.97 22.78-21.97L22.78-21.97Q21.07-21.97 19.09-21.26 17.11-20.56 15.77-19.4 14.43-18.24 14.43-16.97L14.43-16.97Q14.43-15.38 15.4-14.92 16.38-14.45 17.82-14.45L17.82-14.45Q18.04-16.92 18.2-17.85 18.36-18.77 18.87-19.24 19.38-19.7 20.53-19.7L20.53-19.7Q22.85-19.7 23.85-17.86 24.85-16.02 24.85-13.18L24.85-13.18 24.85-11.84Q21.04-11.57 18.52-10.44 15.99-9.3 14.79-7.64 13.6-5.98 13.6-4.1L13.6-4.1Q13.6-2.66 14.24-1.6 14.89-0.54 15.99 0.02 17.09 0.59 18.38 0.59L18.38 0.59ZM24.85-10.45L24.85-4.59Q24.12-3.78 22.95-3.1 21.77-2.42 20.6-2.42L20.6-2.42Q19.75-2.42 19.13-2.86 18.5-3.3 18.19-3.96 17.87-4.61 17.87-5.25L17.87-5.25Q17.87-7.13 19.46-8.41 21.04-9.69 24.85-10.45L24.85-10.45ZM36.03-27.78L36.03-1.2Q37.42-0.32 39.2 0.12 40.99 0.56 42.74 0.56L42.74 0.56Q45.97 0.56 48.73-0.88 51.48-2.32 53.13-5.05 54.78-7.79 54.78-11.52L54.78-11.52Q54.78-14.58 53.79-16.94 52.8-19.31 51.02-20.63 49.24-21.95 46.89-21.95L46.89-21.95Q44.94-21.95 43.23-20.95 41.52-19.95 39.94-18.16L39.94-18.16 39.67-18.16 40.01-20.73 40.01-30.88 39.42-31.45 32.66-30.93 32.34-29.08 36.03-27.78ZM40.01-16.41Q42.23-18.75 45.23-18.75L45.23-18.75Q47.19-18.75 48.33-17.4 49.48-16.04 49.95-14.05 50.41-12.06 50.41-9.96L50.41-9.96Q50.41-7.35 49.7-5.59 48.99-3.83 47.8-2.98 46.6-2.12 45.16-2.12L45.16-2.12Q43.57-2.12 42.16-2.59 40.74-3.05 40.01-3.78L40.01-3.78 40.01-16.41ZM67.33 0.66Q70.16 0.66 72.5-0.78 74.85-2.22 76.2-4.83 77.56-7.45 77.56-10.77L77.56-10.77Q77.56-14.11 76.4-16.66 75.24-19.21 73.05-20.63 70.87-22.05 67.91-22.05L67.91-22.05Q65.13-22.05 62.7-20.65 60.27-19.26 58.78-16.61 57.29-13.96 57.29-10.4L57.29-10.4Q57.29-7.23 58.48-4.72 59.66-2.22 61.92-0.78 64.18 0.66 67.33 0.66L67.33 0.66ZM66.89-19.48Q69.06-19.48 70.49-17.88 71.92-16.28 72.56-13.84 73.21-11.4 73.21-8.76L73.21-8.76Q73.21-6.96 72.65-5.35 72.09-3.74 70.94-2.72 69.79-1.71 68.16-1.71L68.16-1.71Q65.89-1.71 64.42-3.2 62.96-4.69 62.3-7.06 61.64-9.42 61.64-12.13L61.64-12.13Q61.64-14.14 62.2-15.81 62.76-17.48 63.95-18.48 65.13-19.48 66.89-19.48L66.89-19.48ZM93.28 0L93.52-2.12 87.83-2.95 87.83-12.3Q88.08-14.04 88.8-15.23 89.52-16.43 90.4-17.03 91.27-17.63 92.01-17.63L92.01-17.63Q92.71-17.63 93.5-17.37 94.28-17.11 94.99-16.67L94.99-16.67Q96.38-17.85 96.38-19.38L96.38-19.38Q96.38-20.48 95.62-21.3 94.86-22.12 93.67-22.12L93.67-22.12Q92.57-22.12 91.45-21.37 90.32-20.63 89.32-19.14 88.32-17.65 87.69-15.53L87.69-15.53 87.22-15.53 87.71-21.14 87.15-21.73 80.14-20.83 79.8-18.97 83.78-17.77 83.78-2.78 80.04-1.81 79.8 0 93.28 0ZM110.14 0.59Q112.78 0.59 114.45-0.62 116.12-1.83 116.83-3.2L116.83-3.2 117.1-3.2 117.1-2.83Q117.1-2.03 117.48-1.28 117.86-0.54 118.71-0.05 119.57 0.44 120.88 0.44L120.88 0.44Q121.91 0.44 123.08 0.17L123.08 0.17Q123.84 0.02 124.2-0.02L124.2-0.02 124.52-2.12 123.3-2.34Q122.15-2.54 121.58-2.87 121.01-3.2 120.79-3.82 120.57-4.44 120.57-5.62L120.57-5.62 120.57-14.48Q120.57-18.38 119.16-20.18 117.76-21.97 114.54-21.97L114.54-21.97Q112.83-21.97 110.85-21.26 108.87-20.56 107.53-19.4 106.19-18.24 106.19-16.97L106.19-16.97Q106.19-15.38 107.16-14.92 108.14-14.45 109.58-14.45L109.58-14.45Q109.8-16.92 109.96-17.85 110.12-18.77 110.63-19.24 111.14-19.7 112.29-19.7L112.29-19.7Q114.61-19.7 115.61-17.86 116.61-16.02 116.61-13.18L116.61-13.18 116.61-11.84Q112.8-11.57 110.28-10.44 107.75-9.3 106.55-7.64 105.36-5.98 105.36-4.1L105.36-4.1Q105.36-2.66 106-1.6 106.65-0.54 107.75 0.02 108.85 0.59 110.14 0.59L110.14 0.59ZM116.61-10.45L116.61-4.59Q115.88-3.78 114.71-3.1 113.53-2.42 112.36-2.42L112.36-2.42Q111.51-2.42 110.89-2.86 110.26-3.3 109.95-3.96 109.63-4.61 109.63-5.25L109.63-5.25Q109.63-7.13 111.22-8.41 112.8-9.69 116.61-10.45L116.61-10.45ZM136.7 0L137.04-1.93 133.41-2.78 133.41-16.48Q134.31-17.48 135.58-18.03 136.85-18.58 138.21-18.58L138.21-18.58Q140.14-18.58 141.3-17.47 142.46-16.36 142.46-14.09L142.46-14.09 142.46-2.78 139.09-1.78 138.85 0 149.81 0 150.06-1.93 146.54-2.78 146.54-15.04Q146.54-18.33 145.03-20.14 143.51-21.95 140.66-21.95L140.66-21.95Q138.51-21.95 136.6-20.85 134.7-19.75 133.31-18.09L133.31-18.09 133.06-18.09 133.48-21.22 133.06-21.68 125.79-20.73 125.54-18.87 129.3-17.6 129.3-2.78 125.62-1.78 125.37 0 136.7 0ZM159.62 0.51Q161.94 0.51 163.55-0.51 165.17-1.54 166.39-3.2L166.39-3.2 166.61-3.2 166.61-3.03Q166.61-1.44 167.55-0.44 168.49 0.56 170.24 0.56L170.24 0.56Q171.34 0.56 172.04 0.48 172.73 0.39 173.83 0.1L173.83 0.1 174.1-1.93 173-2.17Q171.95-2.42 171.45-2.62 170.95-2.83 170.65-3.43 170.34-4.03 170.34-5.25L170.34-5.25 170.34-31.03 169.83-31.62 163.04-31.03 162.7-29.2 166.41-27.86 166.41-24.02 166.7-20.9 166.53-20.9Q165.92-21.34 164.73-21.66 163.53-21.97 162.33-21.97L162.33-21.97Q159.79-21.97 157.32-20.36 154.84-18.75 153.25-15.94 151.66-13.13 151.66-9.74L151.66-9.74Q151.66-6.49 152.73-4.17 153.79-1.86 155.61-0.67 157.43 0.51 159.62 0.51L159.62 0.51ZM161.16-19.58Q162.46-19.58 163.96-18.68 165.46-17.77 166.39-16.26L166.39-16.26 166.39-4.81Q165.68-3.98 164.23-3.27 162.77-2.56 161.36-2.56L161.36-2.56Q159.79-2.56 158.57-3.55 157.35-4.54 156.66-6.51 155.96-8.47 155.96-11.28L155.96-11.28Q155.96-15.06 157.21-17.32 158.45-19.58 161.16-19.58L161.16-19.58ZM190.18 0.83Q192.06 0.83 193.81 0.02 195.56-0.78 196.63-2.21 197.7-3.64 197.7-5.37L197.7-5.37Q197.7-7.01 196.85-8.26 196-9.52 194.79-10.38 193.58-11.23 191.63-12.3L191.63-12.3Q190.01-13.21 189.11-13.82 188.21-14.43 187.6-15.22 186.99-16.02 186.99-16.99L186.99-16.99Q186.99-18.21 187.73-19.07 188.48-19.92 189.72-19.92L189.72-19.92Q191.14-19.92 192.11-18.54 193.09-17.16 193.53-14.38L193.53-14.38Q195.12-14.48 196.03-15.36 196.95-16.24 196.95-17.63L196.95-17.63Q196.95-18.85 196.2-19.84 195.46-20.83 194.09-21.4 192.72-21.97 190.97-21.97L190.97-21.97Q188.65-21.97 187-20.98 185.35-20 184.52-18.51 183.69-17.02 183.69-15.5L183.69-15.5Q183.69-13.75 184.58-12.4 185.47-11.06 186.73-10.14 187.99-9.23 189.99-8.08L189.99-8.08Q191.45-7.25 192.27-6.7 193.09-6.15 193.63-5.48 194.16-4.81 194.16-4.03L194.16-4.03Q194.16-2.76 193.26-2.16 192.36-1.56 190.94-1.56L190.94-1.56Q189.43-1.56 188.16-2.77 186.89-3.98 186.08-6.37L186.08-6.37Q184.72-6.27 183.91-5.3 183.1-4.32 183.1-2.95L183.1-2.95Q183.1-1.98 183.98-1.1 184.86-0.22 186.47 0.31 188.09 0.83 190.18 0.83L190.18 0.83ZM210.2 0.66Q213.03 0.66 215.38-0.78 217.72-2.22 219.08-4.83 220.43-7.45 220.43-10.77L220.43-10.77Q220.43-14.11 219.27-16.66 218.11-19.21 215.93-20.63 213.74-22.05 210.79-22.05L210.79-22.05Q208-22.05 205.58-20.65 203.15-19.26 201.66-16.61 200.17-13.96 200.17-10.4L200.17-10.4Q200.17-7.23 201.35-4.72 202.54-2.22 204.79-0.78 207.05 0.66 210.2 0.66L210.2 0.66ZM209.76-19.48Q211.94-19.48 213.36-17.88 214.79-16.28 215.44-13.84 216.09-11.4 216.09-8.76L216.09-8.76Q216.09-6.96 215.52-5.35 214.96-3.74 213.82-2.72 212.67-1.71 211.03-1.71L211.03-1.71Q208.76-1.71 207.3-3.2 205.83-4.69 205.17-7.06 204.51-9.42 204.51-12.13L204.51-12.13Q204.51-14.14 205.08-15.81 205.64-17.48 206.82-18.48 208-19.48 209.76-19.48L209.76-19.48ZM232.56 0.73Q234.83 0.73 236.97-0.16 239.11-1.05 240.13-2.27L240.13-2.27 239.52-3.69Q238.42-2.98 237.32-2.59 236.22-2.2 234.59-2.2L234.59-2.2Q232.22-2.2 230.59-3.81 228.95-5.42 228.14-7.79 227.34-10.16 227.34-12.38L227.34-12.38Q227.34-14.58 227.94-16.22 228.53-17.87 229.62-18.77 230.71-19.68 232.15-19.68L232.15-19.68Q233.56-19.68 234.45-18.54 235.35-17.41 236.08-15.67L236.08-15.67Q237.57-15.77 238.37-16.46 239.18-17.14 239.18-18.24L239.18-18.24Q239.18-19.24 238.53-20.09 237.89-20.95 236.57-21.46 235.25-21.97 233.3-21.97L233.3-21.97Q230.61-21.97 228.23-20.5 225.85-19.02 224.38-16.32 222.92-13.62 222.92-10.13L222.92-10.13Q222.92-7.2 224.12-4.71 225.31-2.22 227.51-0.74 229.71 0.73 232.56 0.73L232.56 0.73ZM247.4-26.12Q248.19-26.12 248.88-26.53 249.58-26.93 249.98-27.61 250.38-28.3 250.38-29.1L250.38-29.1Q250.38-30.27 249.5-31.08 248.62-31.88 247.4-31.88L247.4-31.88Q246.23-31.88 245.37-31.09 244.5-30.3 244.5-29.15L244.5-29.15Q244.5-28.34 244.89-27.65 245.28-26.95 245.95-26.54 246.62-26.12 247.4-26.12L247.4-26.12ZM241.59 0L253.31 0 253.58-1.95 249.67-2.83 249.67-21 249.06-21.61 242.2-21.04 241.89-19.19 245.57-17.85 245.57-2.83 241.89-1.93 241.59 0ZM259.78 0.59Q262.42 0.59 264.09-0.62 265.76-1.83 266.47-3.2L266.47-3.2 266.74-3.2 266.74-2.83Q266.74-2.03 267.12-1.28 267.49-0.54 268.35-0.05 269.2 0.44 270.52 0.44L270.52 0.44Q271.55 0.44 272.72 0.17L272.72 0.17Q273.48 0.02 273.84-0.02L273.84-0.02 274.16-2.12 272.94-2.34Q271.79-2.54 271.22-2.87 270.64-3.2 270.42-3.82 270.2-4.44 270.2-5.62L270.2-5.62 270.2-14.48Q270.2-18.38 268.8-20.18 267.4-21.97 264.17-21.97L264.17-21.97Q262.47-21.97 260.49-21.26 258.51-20.56 257.17-19.4 255.82-18.24 255.82-16.97L255.82-16.97Q255.82-15.38 256.8-14.92 257.78-14.45 259.22-14.45L259.22-14.45Q259.44-16.92 259.6-17.85 259.76-18.77 260.27-19.24 260.78-19.7 261.93-19.7L261.93-19.7Q264.25-19.7 265.25-17.86 266.25-16.02 266.25-13.18L266.25-13.18 266.25-11.84Q262.44-11.57 259.91-10.44 257.39-9.3 256.19-7.64 254.99-5.98 254.99-4.1L254.99-4.1Q254.99-2.66 255.64-1.6 256.29-0.54 257.39 0.02 258.49 0.59 259.78 0.59L259.78 0.59ZM266.25-10.45L266.25-4.59Q265.52-3.78 264.34-3.1 263.17-2.42 262-2.42L262-2.42Q261.15-2.42 260.52-2.86 259.9-3.3 259.58-3.96 259.27-4.61 259.27-5.25L259.27-5.25Q259.27-7.13 260.85-8.41 262.44-9.69 266.25-10.45L266.25-10.45ZM274.35 0L286.02 0 286.32-1.95 282.43-2.83 282.43-31.13 281.82-31.71 274.79-31.18 274.5-29.32 278.36-28 278.36-2.83 274.62-1.93 274.35 0ZM302.3 0.83Q304.18 0.83 305.93 0.02 307.67-0.78 308.75-2.21 309.82-3.64 309.82-5.37L309.82-5.37Q309.82-7.01 308.97-8.26 308.11-9.52 306.9-10.38 305.69-11.23 303.74-12.3L303.74-12.3Q302.13-13.21 301.23-13.82 300.32-14.43 299.71-15.22 299.1-16.02 299.1-16.99L299.1-16.99Q299.1-18.21 299.85-19.07 300.59-19.92 301.84-19.92L301.84-19.92Q303.25-19.92 304.23-18.54 305.21-17.16 305.65-14.38L305.65-14.38Q307.23-14.48 308.15-15.36 309.06-16.24 309.06-17.63L309.06-17.63Q309.06-18.85 308.32-19.84 307.57-20.83 306.21-21.4 304.84-21.97 303.08-21.97L303.08-21.97Q300.76-21.97 299.12-20.98 297.47-20 296.64-18.51 295.81-17.02 295.81-15.5L295.81-15.5Q295.81-13.75 296.7-12.4 297.59-11.06 298.85-10.14 300.1-9.23 302.11-8.08L302.11-8.08Q303.57-7.25 304.39-6.7 305.21-6.15 305.74-5.48 306.28-4.81 306.28-4.03L306.28-4.03Q306.28-2.76 305.38-2.16 304.47-1.56 303.06-1.56L303.06-1.56Q301.54-1.56 300.27-2.77 299.01-3.98 298.2-6.37L298.2-6.37Q296.83-6.27 296.03-5.3 295.22-4.32 295.22-2.95L295.22-2.95Q295.22-1.98 296.1-1.1 296.98-0.22 298.59 0.31 300.2 0.83 302.3 0.83L302.3 0.83ZM321.49 0.73Q323.88 0.73 325.97-0.13 328.06-1 329.52-2.54L329.52-2.54 329.01-3.83Q327.81-3.2 326.91-2.91 326-2.61 325.32-2.55 324.64-2.49 323.47-2.49L323.47-2.49Q321.32-2.49 319.82-3.72 318.31-4.96 317.53-6.88 316.75-8.81 316.65-10.86L316.65-10.86 328.47-11.01Q328.62-11.65 328.74-12.63 328.86-13.62 328.86-14.18L328.86-14.18Q328.86-16.67 327.99-18.42 327.13-20.17 325.64-21.06 324.15-21.95 322.34-21.95L322.34-21.95Q319.9-21.95 317.58-20.56 315.26-19.17 313.79-16.55 312.31-13.94 312.31-10.45L312.31-10.45Q312.31-6.91 313.6-4.37 314.9-1.83 317.01-0.55 319.12 0.73 321.49 0.73L321.49 0.73ZM321.15-19.56Q324.52-19.56 324.52-15.01L324.52-15.01Q324.52-14.65 324.48-14.12 324.44-13.6 324.37-13.33L324.37-13.33 316.7-12.77Q316.83-15.01 317.5-16.54 318.17-18.07 319.14-18.81 320.12-19.56 321.15-19.56L321.15-19.56ZM341.46 0.73Q343.73 0.73 345.86-0.16 348-1.05 349.02-2.27L349.02-2.27 348.41-3.69Q347.32-2.98 346.22-2.59 345.12-2.2 343.48-2.2L343.48-2.2Q341.11-2.2 339.48-3.81 337.84-5.42 337.04-7.79 336.23-10.16 336.23-12.38L336.23-12.38Q336.23-14.58 336.83-16.22 337.43-17.87 338.51-18.77 339.6-19.68 341.04-19.68L341.04-19.68Q342.46-19.68 343.35-18.54 344.24-17.41 344.97-15.67L344.97-15.67Q346.46-15.77 347.27-16.46 348.07-17.14 348.07-18.24L348.07-18.24Q348.07-19.24 347.43-20.09 346.78-20.95 345.46-21.46 344.14-21.97 342.19-21.97L342.19-21.97Q339.5-21.97 337.12-20.5 334.74-19.02 333.28-16.32 331.81-13.62 331.81-10.13L331.81-10.13Q331.81-7.2 333.01-4.71 334.21-2.22 336.4-0.74 338.6 0.73 341.46 0.73L341.46 0.73ZM353.42-17.77L353.42-6.52Q353.42-2.78 354.87-1.11 356.32 0.56 358.86 0.56L358.86 0.56Q363.26 0.56 365.84-3.2L365.84-3.2 366.16-3.2 366.16-2.98Q366.16-1.39 367.08-0.42 367.99 0.56 369.75 0.56L369.75 0.56Q370.82 0.56 371.56 0.46 372.29 0.37 373.44 0.1L373.44 0.1 373.66-1.93 372.53-2.17Q371.53-2.39 371.02-2.64 370.51-2.88 370.2-3.48 369.9-4.08 369.9-5.25L369.9-5.25 369.9-20.97 369.38-21.56 362.21-20.9 361.96-18.65 365.84-17.63 365.84-4.66Q364.96-3.76 363.9-3.27 362.84-2.78 361.3-2.78L361.3-2.78Q357.54-2.78 357.54-7.74L357.54-7.74 357.54-20.97 356.93-21.56 350.39-21.04 350.05-19.12 353.42-17.77ZM388.5 0L388.74-2.12 383.05-2.95 383.05-12.3Q383.3-14.04 384.02-15.23 384.74-16.43 385.62-17.03 386.5-17.63 387.23-17.63L387.23-17.63Q387.94-17.63 388.72-17.37 389.5-17.11 390.21-16.67L390.21-16.67Q391.6-17.85 391.6-19.38L391.6-19.38Q391.6-20.48 390.84-21.3 390.08-22.12 388.89-22.12L388.89-22.12Q387.79-22.12 386.67-21.37 385.54-20.63 384.54-19.14 383.54-17.65 382.91-15.53L382.91-15.53 382.44-15.53 382.93-21.14 382.37-21.73 375.36-20.83 375.02-18.97 379-17.77 379-2.78 375.26-1.81 375.02 0 388.5 0ZM398.7-26.12Q399.48-26.12 400.18-26.53 400.87-26.93 401.28-27.61 401.68-28.3 401.68-29.1L401.68-29.1Q401.68-30.27 400.8-31.08 399.92-31.88 398.7-31.88L398.7-31.88Q397.53-31.88 396.66-31.09 395.79-30.3 395.79-29.15L395.79-29.15Q395.79-28.34 396.19-27.65 396.58-26.95 397.25-26.54 397.92-26.12 398.7-26.12L398.7-26.12ZM392.89 0L404.61 0 404.88-1.95 400.97-2.83 400.97-21 400.36-21.61 393.5-21.04 393.18-19.19 396.87-17.85 396.87-2.83 393.18-1.93 392.89 0ZM408.93-18.63L408.83-6.35Q408.8-2.54 410.18-0.99 411.56 0.56 414.03 0.56L414.03 0.56Q416.08 0.56 417.79-0.39 419.5-1.34 420.65-3.03L420.65-3.03 420.13-4.35Q420.13-4.32 419.56-3.96 418.99-3.59 418.2-3.28 417.42-2.98 416.62-2.98L416.62-2.98Q415.32-2.98 414.54-3.42 413.76-3.86 413.39-4.91 413.03-5.96 413.03-7.79L413.03-7.79 413.1-18.58 419.84-18.58 420.06-20.73 413.15-20.73 413.15-26.54 411.86-26.54Q410.54-24.73 408.93-22.95 407.32-21.17 405.83-19.95L405.83-19.95 405.83-18.63 408.93-18.63ZM424.94 9.28Q426.84 9.28 428.19 8.57 429.53 7.86 430.7 6.15 431.87 4.44 433.14 1.29L433.14 1.29 441.22-18.51 443.69-19.51 443.86-21.31 435.51-21.31 435.17-19.48 438.37-18.46 433.09-5.42 428.11-18.58 431.21-19.51 431.43-21.31 421.18-21.31 420.91-19.43 423.94-18.51 430.9 0 430.41 1.2Q429.53 3.37 428.49 4.05 427.45 4.74 426.23 4.74L426.23 4.74Q425.28 4.74 424.42 4.43 423.55 4.13 422.55 3.44L422.55 3.44Q421.77 4.13 421.47 4.83 421.18 5.54 421.18 6.37L421.18 6.37Q421.18 7.08 421.66 7.75 422.13 8.42 423 8.85 423.87 9.28 424.94 9.28L424.94 9.28ZM457.87-26.12Q458.65-26.12 459.35-26.53 460.04-26.93 460.45-27.61 460.85-28.3 460.85-29.1L460.85-29.1Q460.85-30.27 459.97-31.08 459.09-31.88 457.87-31.88L457.87-31.88Q456.7-31.88 455.83-31.09 454.96-30.3 454.96-29.15L454.96-29.15Q454.96-28.34 455.35-27.65 455.75-26.95 456.42-26.54 457.09-26.12 457.87-26.12L457.87-26.12ZM452.06 0L463.78 0 464.05-1.95 460.14-2.83 460.14-21 459.53-21.61 452.67-21.04 452.35-19.19 456.04-17.85 456.04-2.83 452.35-1.93 452.06 0ZM476.54 0L476.89-1.93 473.25-2.78 473.25-16.48Q474.15-17.48 475.42-18.03 476.69-18.58 478.06-18.58L478.06-18.58Q479.99-18.58 481.15-17.47 482.31-16.36 482.31-14.09L482.31-14.09 482.31-2.78 478.94-1.78 478.69 0 489.65 0 489.9-1.93 486.38-2.78 486.38-15.04Q486.38-18.33 484.87-20.14 483.36-21.95 480.5-21.95L480.5-21.95Q478.35-21.95 476.45-20.85 474.54-19.75 473.15-18.09L473.15-18.09 472.91-18.09 473.32-21.22 472.91-21.68 465.63-20.73 465.39-18.87 469.15-17.6 469.15-2.78 465.46-1.78 465.22 0 476.54 0ZM498.49 0.83Q500.37 0.83 502.12 0.02 503.86-0.78 504.93-2.21 506.01-3.64 506.01-5.37L506.01-5.37Q506.01-7.01 505.15-8.26 504.3-9.52 503.09-10.38 501.88-11.23 499.93-12.3L499.93-12.3Q498.32-13.21 497.42-13.82 496.51-14.43 495.9-15.22 495.29-16.02 495.29-16.99L495.29-16.99Q495.29-18.21 496.04-19.07 496.78-19.92 498.03-19.92L498.03-19.92Q499.44-19.92 500.42-18.54 501.39-17.16 501.83-14.38L501.83-14.38Q503.42-14.48 504.34-15.36 505.25-16.24 505.25-17.63L505.25-17.63Q505.25-18.85 504.51-19.84 503.76-20.83 502.4-21.4 501.03-21.97 499.27-21.97L499.27-21.97Q496.95-21.97 495.3-20.98 493.66-20 492.83-18.51 492-17.02 492-15.5L492-15.5Q492-13.75 492.89-12.4 493.78-11.06 495.03-10.14 496.29-9.23 498.29-8.08L498.29-8.08Q499.76-7.25 500.58-6.7 501.39-6.15 501.93-5.48 502.47-4.81 502.47-4.03L502.47-4.03Q502.47-2.76 501.57-2.16 500.66-1.56 499.25-1.56L499.25-1.56Q497.73-1.56 496.46-2.77 495.19-3.98 494.39-6.37L494.39-6.37Q493.02-6.27 492.22-5.3 491.41-4.32 491.41-2.95L491.41-2.95Q491.41-1.98 492.29-1.1 493.17-0.22 494.78 0.31 496.39 0.83 498.49 0.83L498.49 0.83ZM510.99-18.63L510.89-6.35Q510.87-2.54 512.24-0.99 513.62 0.56 516.09 0.56L516.09 0.56Q518.14 0.56 519.85-0.39 521.56-1.34 522.71-3.03L522.71-3.03 522.19-4.35Q522.19-4.32 521.62-3.96 521.05-3.59 520.26-3.28 519.48-2.98 518.68-2.98L518.68-2.98Q517.38-2.98 516.6-3.42 515.82-3.86 515.45-4.91 515.09-5.96 515.09-7.79L515.09-7.79 515.16-18.58 521.9-18.58 522.12-20.73 515.21-20.73 515.21-26.54 513.92-26.54Q512.6-24.73 510.99-22.95 509.38-21.17 507.89-19.95L507.89-19.95 507.89-18.63 510.99-18.63ZM529.76-26.12Q530.54-26.12 531.24-26.53 531.93-26.93 532.33-27.61 532.74-28.3 532.74-29.1L532.74-29.1Q532.74-30.27 531.86-31.08 530.98-31.88 529.76-31.88L529.76-31.88Q528.59-31.88 527.72-31.09 526.85-30.3 526.85-29.15L526.85-29.15Q526.85-28.34 527.24-27.65 527.63-26.95 528.31-26.54 528.98-26.12 529.76-26.12L529.76-26.12ZM523.95 0L535.67 0 535.94-1.95 532.03-2.83 532.03-21 531.42-21.61 524.56-21.04 524.24-19.19 527.93-17.85 527.93-2.83 524.24-1.93 523.95 0ZM539.99-18.63L539.89-6.35Q539.86-2.54 541.24-0.99 542.62 0.56 545.09 0.56L545.09 0.56Q547.14 0.56 548.85-0.39 550.56-1.34 551.7-3.03L551.7-3.03 551.19-4.35Q551.19-4.32 550.62-3.96 550.04-3.59 549.26-3.28 548.48-2.98 547.68-2.98L547.68-2.98Q546.38-2.98 545.6-3.42 544.82-3.86 544.45-4.91 544.09-5.96 544.09-7.79L544.09-7.79 544.16-18.58 550.9-18.58 551.12-20.73 544.21-20.73 544.21-26.54 542.92-26.54Q541.6-24.73 539.99-22.95 538.37-21.17 536.89-19.95L536.89-19.95 536.89-18.63 539.99-18.63ZM555.88-17.77L555.88-6.52Q555.88-2.78 557.33-1.11 558.78 0.56 561.32 0.56L561.32 0.56Q565.72 0.56 568.3-3.2L568.3-3.2 568.62-3.2 568.62-2.98Q568.62-1.39 569.54-0.42 570.45 0.56 572.21 0.56L572.21 0.56Q573.28 0.56 574.02 0.46 574.75 0.37 575.9 0.1L575.9 0.1 576.12-1.93 574.99-2.17Q573.99-2.39 573.48-2.64 572.97-2.88 572.66-3.48 572.36-4.08 572.36-5.25L572.36-5.25 572.36-20.97 571.84-21.56 564.67-20.9 564.42-18.65 568.3-17.63 568.3-4.66Q567.42-3.76 566.36-3.27 565.3-2.78 563.76-2.78L563.76-2.78Q560-2.78 560-7.74L560-7.74 560-20.97 559.39-21.56 552.85-21.04 552.51-19.12 555.88-17.77ZM580.29-18.63L580.19-6.35Q580.17-2.54 581.55-0.99 582.93 0.56 585.39 0.56L585.39 0.56Q587.44 0.56 589.15-0.39 590.86-1.34 592.01-3.03L592.01-3.03 591.49-4.35Q591.49-4.32 590.92-3.96 590.35-3.59 589.57-3.28 588.78-2.98 587.98-2.98L587.98-2.98Q586.69-2.98 585.9-3.42 585.12-3.86 584.76-4.91 584.39-5.96 584.39-7.79L584.39-7.79 584.46-18.58 591.2-18.58 591.42-20.73 584.51-20.73 584.51-26.54 583.22-26.54Q581.9-24.73 580.29-22.95 578.68-21.17 577.19-19.95L577.19-19.95 577.19-18.63 580.29-18.63ZM602.82 0.73Q605.21 0.73 607.3-0.13 609.39-1 610.85-2.54L610.85-2.54 610.34-3.83Q609.14-3.2 608.24-2.91 607.34-2.61 606.65-2.55 605.97-2.49 604.8-2.49L604.8-2.49Q602.65-2.49 601.15-3.72 599.65-4.96 598.87-6.88 598.08-8.81 597.99-10.86L597.99-10.86 609.8-11.01Q609.95-11.65 610.07-12.63 610.19-13.62 610.19-14.18L610.19-14.18Q610.19-16.67 609.33-18.42 608.46-20.17 606.97-21.06 605.48-21.95 603.67-21.95L603.67-21.95Q601.23-21.95 598.91-20.56 596.59-19.17 595.12-16.55 593.64-13.94 593.64-10.45L593.64-10.45Q593.64-6.91 594.93-4.37 596.23-1.83 598.34-0.55 600.45 0.73 602.82 0.73L602.82 0.73ZM602.48-19.56Q605.85-19.56 605.85-15.01L605.85-15.01Q605.85-14.65 605.81-14.12 605.77-13.6 605.7-13.33L605.7-13.33 598.04-12.77Q598.16-15.01 598.83-16.54 599.5-18.07 600.48-18.81 601.45-19.56 602.48-19.56L602.48-19.56ZM620.59-28.52L625.03-27.49 625.03-2.95 620.95-1.81 620.76 0 633.94 0 634.19-1.95 629.77-2.78 629.77-27.59 633.89-28.52 634.14-30.37 620.86-30.37 620.59-28.52ZM638.7 0.76Q639.51 0.76 640.19 0.35 640.87-0.05 641.28-0.72 641.68-1.39 641.68-2.2L641.68-2.2Q641.68-3.37 640.8-4.19 639.92-5 638.7-5L638.7-5Q637.53-5 636.68-4.21 635.82-3.42 635.82-2.25L635.82-2.25Q635.82-1 636.66-0.12 637.51 0.76 638.7 0.76L638.7 0.76ZM643.95-30.37L644.14-22.51 646.36-22.19 647.66-28.13 654.86-28.13 654.86-2.95 650.74-1.81 650.56 0 663.72 0 664.07-1.95 659.55-2.78 659.55-28.13 666.99-28.13 667.92-22.49 670.24-22.12 671.07-30.37 643.95-30.37Z" opacity="1" transform="matrix(1,0,0,1,0,0)" fill="black" class="slogan-text-1" id="SvgjsPath2479" stroke-width="7" stroke="black" stroke-linejoin="round"></path></svg></g></svg></g></svg></g></svg></g><g></g></svg></g></svg></g></svg></g></mask><g transform="matrix(1,0,0,1,49.68134177994452,37.08)"><svg viewBox="0 0 296.15731644011095 173.04" height="173.04" width="296.15731644011095"><g><svg viewBox="0 0 296.15731644011095 173.04" height="173.04" width="296.15731644011095"><g><svg viewBox="0 0 316.416 184.87682593204514" height="173.04" width="296.15731644011095"><g><svg viewBox="0 0 316.416 184.87682593204514" height="184.87682593204514" width="316.416"><g id="textblocktransform"><svg viewBox="0 0 316.416 184.87682593204514" height="184.87682593204514" width="316.416" id="textblock"><g><svg viewBox="0 0 316.416 136.4554919933738" height="136.4554919933738" width="316.416"><g transform="matrix(1,0,0,1,0,0)"><svg width="316.416" viewBox="-1 -36.04999923706055 91.54000091552734 40.04999923706055" height="136.4554919933738" data-palette-color="url(#8a264664-11a1-4e8f-bb8c-49626436ebdc)"></svg></g></svg></g><g transform="matrix(1,0,0,1,3.5,162.89478594028492)"><svg viewBox="0 0 309.416 21.982039991760217" height="21.982039991760217" width="309.416"><g transform="matrix(1,0,0,1,0,0)"><svg width="309.416" viewBox="-3.759999990463257 -35.8799991607666 678.8300170898438 49.15999984741211" height="21.982039991760217" data-palette-color="#ff4136"><path d="M0.24 0L11.91 0 12.21-1.95 8.33-2.83 8.33-31.13 7.71-31.71 0.68-31.18 0.39-29.32 4.25-28 4.25-2.83 0.51-1.93 0.24 0ZM18.38 0.59Q21.02 0.59 22.69-0.62 24.36-1.83 25.07-3.2L25.07-3.2 25.34-3.2 25.34-2.83Q25.34-2.03 25.72-1.28 26.1-0.54 26.95-0.05 27.81 0.44 29.12 0.44L29.12 0.44Q30.15 0.44 31.32 0.17L31.32 0.17Q32.08 0.02 32.44-0.02L32.44-0.02 32.76-2.12 31.54-2.34Q30.39-2.54 29.82-2.87 29.25-3.2 29.03-3.82 28.81-4.44 28.81-5.62L28.81-5.62 28.81-14.48Q28.81-18.38 27.4-20.18 26-21.97 22.78-21.97L22.78-21.97Q21.07-21.97 19.09-21.26 17.11-20.56 15.77-19.4 14.43-18.24 14.43-16.97L14.43-16.97Q14.43-15.38 15.4-14.92 16.38-14.45 17.82-14.45L17.82-14.45Q18.04-16.92 18.2-17.85 18.36-18.77 18.87-19.24 19.38-19.7 20.53-19.7L20.53-19.7Q22.85-19.7 23.85-17.86 24.85-16.02 24.85-13.18L24.85-13.18 24.85-11.84Q21.04-11.57 18.52-10.44 15.99-9.3 14.79-7.64 13.6-5.98 13.6-4.1L13.6-4.1Q13.6-2.66 14.24-1.6 14.89-0.54 15.99 0.02 17.09 0.59 18.38 0.59L18.38 0.59ZM24.85-10.45L24.85-4.59Q24.12-3.78 22.95-3.1 21.77-2.42 20.6-2.42L20.6-2.42Q19.75-2.42 19.13-2.86 18.5-3.3 18.19-3.96 17.87-4.61 17.87-5.25L17.87-5.25Q17.87-7.13 19.46-8.41 21.04-9.69 24.85-10.45L24.85-10.45ZM36.03-27.78L36.03-1.2Q37.42-0.32 39.2 0.12 40.99 0.56 42.74 0.56L42.74 0.56Q45.97 0.56 48.73-0.88 51.48-2.32 53.13-5.05 54.78-7.79 54.78-11.52L54.78-11.52Q54.78-14.58 53.79-16.94 52.8-19.31 51.02-20.63 49.24-21.95 46.89-21.95L46.89-21.95Q44.94-21.95 43.23-20.95 41.52-19.95 39.94-18.16L39.94-18.16 39.67-18.16 40.01-20.73 40.01-30.88 39.42-31.45 32.66-30.93 32.34-29.08 36.03-27.78ZM40.01-16.41Q42.23-18.75 45.23-18.75L45.23-18.75Q47.19-18.75 48.33-17.4 49.48-16.04 49.95-14.05 50.41-12.06 50.41-9.96L50.41-9.96Q50.41-7.35 49.7-5.59 48.99-3.83 47.8-2.98 46.6-2.12 45.16-2.12L45.16-2.12Q43.57-2.12 42.16-2.59 40.74-3.05 40.01-3.78L40.01-3.78 40.01-16.41ZM67.33 0.66Q70.16 0.66 72.5-0.78 74.85-2.22 76.2-4.83 77.56-7.45 77.56-10.77L77.56-10.77Q77.56-14.11 76.4-16.66 75.24-19.21 73.05-20.63 70.87-22.05 67.91-22.05L67.91-22.05Q65.13-22.05 62.7-20.65 60.27-19.26 58.78-16.61 57.29-13.96 57.29-10.4L57.29-10.4Q57.29-7.23 58.48-4.72 59.66-2.22 61.92-0.78 64.18 0.66 67.33 0.66L67.33 0.66ZM66.89-19.48Q69.06-19.48 70.49-17.88 71.92-16.28 72.56-13.84 73.21-11.4 73.21-8.76L73.21-8.76Q73.21-6.96 72.65-5.35 72.09-3.74 70.94-2.72 69.79-1.71 68.16-1.71L68.16-1.71Q65.89-1.71 64.42-3.2 62.96-4.69 62.3-7.06 61.64-9.42 61.64-12.13L61.64-12.13Q61.64-14.14 62.2-15.81 62.76-17.48 63.95-18.48 65.13-19.48 66.89-19.48L66.89-19.48ZM93.28 0L93.52-2.12 87.83-2.95 87.83-12.3Q88.08-14.04 88.8-15.23 89.52-16.43 90.4-17.03 91.27-17.63 92.01-17.63L92.01-17.63Q92.71-17.63 93.5-17.37 94.28-17.11 94.99-16.67L94.99-16.67Q96.38-17.85 96.38-19.38L96.38-19.38Q96.38-20.48 95.62-21.3 94.86-22.12 93.67-22.12L93.67-22.12Q92.57-22.12 91.45-21.37 90.32-20.63 89.32-19.14 88.32-17.65 87.69-15.53L87.69-15.53 87.22-15.53 87.71-21.14 87.15-21.73 80.14-20.83 79.8-18.97 83.78-17.77 83.78-2.78 80.04-1.81 79.8 0 93.28 0ZM110.14 0.59Q112.78 0.59 114.45-0.62 116.12-1.83 116.83-3.2L116.83-3.2 117.1-3.2 117.1-2.83Q117.1-2.03 117.48-1.28 117.86-0.54 118.71-0.05 119.57 0.44 120.88 0.44L120.88 0.44Q121.91 0.44 123.08 0.17L123.08 0.17Q123.84 0.02 124.2-0.02L124.2-0.02 124.52-2.12 123.3-2.34Q122.15-2.54 121.58-2.87 121.01-3.2 120.79-3.82 120.57-4.44 120.57-5.62L120.57-5.62 120.57-14.48Q120.57-18.38 119.16-20.18 117.76-21.97 114.54-21.97L114.54-21.97Q112.83-21.97 110.85-21.26 108.87-20.56 107.53-19.4 106.19-18.24 106.19-16.97L106.19-16.97Q106.19-15.38 107.16-14.92 108.14-14.45 109.58-14.45L109.58-14.45Q109.8-16.92 109.96-17.85 110.12-18.77 110.63-19.24 111.14-19.7 112.29-19.7L112.29-19.7Q114.61-19.7 115.61-17.86 116.61-16.02 116.61-13.18L116.61-13.18 116.61-11.84Q112.8-11.57 110.28-10.44 107.75-9.3 106.55-7.64 105.36-5.98 105.36-4.1L105.36-4.1Q105.36-2.66 106-1.6 106.65-0.54 107.75 0.02 108.85 0.59 110.14 0.59L110.14 0.59ZM116.61-10.45L116.61-4.59Q115.88-3.78 114.71-3.1 113.53-2.42 112.36-2.42L112.36-2.42Q111.51-2.42 110.89-2.86 110.26-3.3 109.95-3.96 109.63-4.61 109.63-5.25L109.63-5.25Q109.63-7.13 111.22-8.41 112.8-9.69 116.61-10.45L116.61-10.45ZM136.7 0L137.04-1.93 133.41-2.78 133.41-16.48Q134.31-17.48 135.58-18.03 136.85-18.58 138.21-18.58L138.21-18.58Q140.14-18.58 141.3-17.47 142.46-16.36 142.46-14.09L142.46-14.09 142.46-2.78 139.09-1.78 138.85 0 149.81 0 150.06-1.93 146.54-2.78 146.54-15.04Q146.54-18.33 145.03-20.14 143.51-21.95 140.66-21.95L140.66-21.95Q138.51-21.95 136.6-20.85 134.7-19.75 133.31-18.09L133.31-18.09 133.06-18.09 133.48-21.22 133.06-21.68 125.79-20.73 125.54-18.87 129.3-17.6 129.3-2.78 125.62-1.78 125.37 0 136.7 0ZM159.62 0.51Q161.94 0.51 163.55-0.51 165.17-1.54 166.39-3.2L166.39-3.2 166.61-3.2 166.61-3.03Q166.61-1.44 167.55-0.44 168.49 0.56 170.24 0.56L170.24 0.56Q171.34 0.56 172.04 0.48 172.73 0.39 173.83 0.1L173.83 0.1 174.1-1.93 173-2.17Q171.95-2.42 171.45-2.62 170.95-2.83 170.65-3.43 170.34-4.03 170.34-5.25L170.34-5.25 170.34-31.03 169.83-31.62 163.04-31.03 162.7-29.2 166.41-27.86 166.41-24.02 166.7-20.9 166.53-20.9Q165.92-21.34 164.73-21.66 163.53-21.97 162.33-21.97L162.33-21.97Q159.79-21.97 157.32-20.36 154.84-18.75 153.25-15.94 151.66-13.13 151.66-9.74L151.66-9.74Q151.66-6.49 152.73-4.17 153.79-1.86 155.61-0.67 157.43 0.51 159.62 0.51L159.62 0.51ZM161.16-19.58Q162.46-19.58 163.96-18.68 165.46-17.77 166.39-16.26L166.39-16.26 166.39-4.81Q165.68-3.98 164.23-3.27 162.77-2.56 161.36-2.56L161.36-2.56Q159.79-2.56 158.57-3.55 157.35-4.54 156.66-6.51 155.96-8.47 155.96-11.28L155.96-11.28Q155.96-15.06 157.21-17.32 158.45-19.58 161.16-19.58L161.16-19.58ZM190.18 0.83Q192.06 0.83 193.81 0.02 195.56-0.78 196.63-2.21 197.7-3.64 197.7-5.37L197.7-5.37Q197.7-7.01 196.85-8.26 196-9.52 194.79-10.38 193.58-11.23 191.63-12.3L191.63-12.3Q190.01-13.21 189.11-13.82 188.21-14.43 187.6-15.22 186.99-16.02 186.99-16.99L186.99-16.99Q186.99-18.21 187.73-19.07 188.48-19.92 189.72-19.92L189.72-19.92Q191.14-19.92 192.11-18.54 193.09-17.16 193.53-14.38L193.53-14.38Q195.12-14.48 196.03-15.36 196.95-16.24 196.95-17.63L196.95-17.63Q196.95-18.85 196.2-19.84 195.46-20.83 194.09-21.4 192.72-21.97 190.97-21.97L190.97-21.97Q188.65-21.97 187-20.98 185.35-20 184.52-18.51 183.69-17.02 183.69-15.5L183.69-15.5Q183.69-13.75 184.58-12.4 185.47-11.06 186.73-10.14 187.99-9.23 189.99-8.08L189.99-8.08Q191.45-7.25 192.27-6.7 193.09-6.15 193.63-5.48 194.16-4.81 194.16-4.03L194.16-4.03Q194.16-2.76 193.26-2.16 192.36-1.56 190.94-1.56L190.94-1.56Q189.43-1.56 188.16-2.77 186.89-3.98 186.08-6.37L186.08-6.37Q184.72-6.27 183.91-5.3 183.1-4.32 183.1-2.95L183.1-2.95Q183.1-1.98 183.98-1.1 184.86-0.22 186.47 0.31 188.09 0.83 190.18 0.83L190.18 0.83ZM210.2 0.66Q213.03 0.66 215.38-0.78 217.72-2.22 219.08-4.83 220.43-7.45 220.43-10.77L220.43-10.77Q220.43-14.11 219.27-16.66 218.11-19.21 215.93-20.63 213.74-22.05 210.79-22.05L210.79-22.05Q208-22.05 205.58-20.65 203.15-19.26 201.66-16.61 200.17-13.96 200.17-10.4L200.17-10.4Q200.17-7.23 201.35-4.72 202.54-2.22 204.79-0.78 207.05 0.66 210.2 0.66L210.2 0.66ZM209.76-19.48Q211.94-19.48 213.36-17.88 214.79-16.28 215.44-13.84 216.09-11.4 216.09-8.76L216.09-8.76Q216.09-6.96 215.52-5.35 214.96-3.74 213.82-2.72 212.67-1.71 211.03-1.71L211.03-1.71Q208.76-1.71 207.3-3.2 205.83-4.69 205.17-7.06 204.51-9.42 204.51-12.13L204.51-12.13Q204.51-14.14 205.08-15.81 205.64-17.48 206.82-18.48 208-19.48 209.76-19.48L209.76-19.48ZM232.56 0.73Q234.83 0.73 236.97-0.16 239.11-1.05 240.13-2.27L240.13-2.27 239.52-3.69Q238.42-2.98 237.32-2.59 236.22-2.2 234.59-2.2L234.59-2.2Q232.22-2.2 230.59-3.81 228.95-5.42 228.14-7.79 227.34-10.16 227.34-12.38L227.34-12.38Q227.34-14.58 227.94-16.22 228.53-17.87 229.62-18.77 230.71-19.68 232.15-19.68L232.15-19.68Q233.56-19.68 234.45-18.54 235.35-17.41 236.08-15.67L236.08-15.67Q237.57-15.77 238.37-16.46 239.18-17.14 239.18-18.24L239.18-18.24Q239.18-19.24 238.53-20.09 237.89-20.95 236.57-21.46 235.25-21.97 233.3-21.97L233.3-21.97Q230.61-21.97 228.23-20.5 225.85-19.02 224.38-16.32 222.92-13.62 222.92-10.13L222.92-10.13Q222.92-7.2 224.12-4.71 225.31-2.22 227.51-0.74 229.71 0.73 232.56 0.73L232.56 0.73ZM247.4-26.12Q248.19-26.12 248.88-26.53 249.58-26.93 249.98-27.61 250.38-28.3 250.38-29.1L250.38-29.1Q250.38-30.27 249.5-31.08 248.62-31.88 247.4-31.88L247.4-31.88Q246.23-31.88 245.37-31.09 244.5-30.3 244.5-29.15L244.5-29.15Q244.5-28.34 244.89-27.65 245.28-26.95 245.95-26.54 246.62-26.12 247.4-26.12L247.4-26.12ZM241.59 0L253.31 0 253.58-1.95 249.67-2.83 249.67-21 249.06-21.61 242.2-21.04 241.89-19.19 245.57-17.85 245.57-2.83 241.89-1.93 241.59 0ZM259.78 0.59Q262.42 0.59 264.09-0.62 265.76-1.83 266.47-3.2L266.47-3.2 266.74-3.2 266.74-2.83Q266.74-2.03 267.12-1.28 267.49-0.54 268.35-0.05 269.2 0.44 270.52 0.44L270.52 0.44Q271.55 0.44 272.72 0.17L272.72 0.17Q273.48 0.02 273.84-0.02L273.84-0.02 274.16-2.12 272.94-2.34Q271.79-2.54 271.22-2.87 270.64-3.2 270.42-3.82 270.2-4.44 270.2-5.62L270.2-5.62 270.2-14.48Q270.2-18.38 268.8-20.18 267.4-21.97 264.17-21.97L264.17-21.97Q262.47-21.97 260.49-21.26 258.51-20.56 257.17-19.4 255.82-18.24 255.82-16.97L255.82-16.97Q255.82-15.38 256.8-14.92 257.78-14.45 259.22-14.45L259.22-14.45Q259.44-16.92 259.6-17.85 259.76-18.77 260.27-19.24 260.78-19.7 261.93-19.7L261.93-19.7Q264.25-19.7 265.25-17.86 266.25-16.02 266.25-13.18L266.25-13.18 266.25-11.84Q262.44-11.57 259.91-10.44 257.39-9.3 256.19-7.64 254.99-5.98 254.99-4.1L254.99-4.1Q254.99-2.66 255.64-1.6 256.29-0.54 257.39 0.02 258.49 0.59 259.78 0.59L259.78 0.59ZM266.25-10.45L266.25-4.59Q265.52-3.78 264.34-3.1 263.17-2.42 262-2.42L262-2.42Q261.15-2.42 260.52-2.86 259.9-3.3 259.58-3.96 259.27-4.61 259.27-5.25L259.27-5.25Q259.27-7.13 260.85-8.41 262.44-9.69 266.25-10.45L266.25-10.45ZM274.35 0L286.02 0 286.32-1.95 282.43-2.83 282.43-31.13 281.82-31.71 274.79-31.18 274.5-29.32 278.36-28 278.36-2.83 274.62-1.93 274.35 0ZM302.3 0.83Q304.18 0.83 305.93 0.02 307.67-0.78 308.75-2.21 309.82-3.64 309.82-5.37L309.82-5.37Q309.82-7.01 308.97-8.26 308.11-9.52 306.9-10.38 305.69-11.23 303.74-12.3L303.74-12.3Q302.13-13.21 301.23-13.82 300.32-14.43 299.71-15.22 299.1-16.02 299.1-16.99L299.1-16.99Q299.1-18.21 299.85-19.07 300.59-19.92 301.84-19.92L301.84-19.92Q303.25-19.92 304.23-18.54 305.21-17.16 305.65-14.38L305.65-14.38Q307.23-14.48 308.15-15.36 309.06-16.24 309.06-17.63L309.06-17.63Q309.06-18.85 308.32-19.84 307.57-20.83 306.21-21.4 304.84-21.97 303.08-21.97L303.08-21.97Q300.76-21.97 299.12-20.98 297.47-20 296.64-18.51 295.81-17.02 295.81-15.5L295.81-15.5Q295.81-13.75 296.7-12.4 297.59-11.06 298.85-10.14 300.1-9.23 302.11-8.08L302.11-8.08Q303.57-7.25 304.39-6.7 305.21-6.15 305.74-5.48 306.28-4.81 306.28-4.03L306.28-4.03Q306.28-2.76 305.38-2.16 304.47-1.56 303.06-1.56L303.06-1.56Q301.54-1.56 300.27-2.77 299.01-3.98 298.2-6.37L298.2-6.37Q296.83-6.27 296.03-5.3 295.22-4.32 295.22-2.95L295.22-2.95Q295.22-1.98 296.1-1.1 296.98-0.22 298.59 0.31 300.2 0.83 302.3 0.83L302.3 0.83ZM321.49 0.73Q323.88 0.73 325.97-0.13 328.06-1 329.52-2.54L329.52-2.54 329.01-3.83Q327.81-3.2 326.91-2.91 326-2.61 325.32-2.55 324.64-2.49 323.47-2.49L323.47-2.49Q321.32-2.49 319.82-3.72 318.31-4.96 317.53-6.88 316.75-8.81 316.65-10.86L316.65-10.86 328.47-11.01Q328.62-11.65 328.74-12.63 328.86-13.62 328.86-14.18L328.86-14.18Q328.86-16.67 327.99-18.42 327.13-20.17 325.64-21.06 324.15-21.95 322.34-21.95L322.34-21.95Q319.9-21.95 317.58-20.56 315.26-19.17 313.79-16.55 312.31-13.94 312.31-10.45L312.31-10.45Q312.31-6.91 313.6-4.37 314.9-1.83 317.01-0.55 319.12 0.73 321.49 0.73L321.49 0.73ZM321.15-19.56Q324.52-19.56 324.52-15.01L324.52-15.01Q324.52-14.65 324.48-14.12 324.44-13.6 324.37-13.33L324.37-13.33 316.7-12.77Q316.83-15.01 317.5-16.54 318.17-18.07 319.14-18.81 320.12-19.56 321.15-19.56L321.15-19.56ZM341.46 0.73Q343.73 0.73 345.86-0.16 348-1.05 349.02-2.27L349.02-2.27 348.41-3.69Q347.32-2.98 346.22-2.59 345.12-2.2 343.48-2.2L343.48-2.2Q341.11-2.2 339.48-3.81 337.84-5.42 337.04-7.79 336.23-10.16 336.23-12.38L336.23-12.38Q336.23-14.58 336.83-16.22 337.43-17.87 338.51-18.77 339.6-19.68 341.04-19.68L341.04-19.68Q342.46-19.68 343.35-18.54 344.24-17.41 344.97-15.67L344.97-15.67Q346.46-15.77 347.27-16.46 348.07-17.14 348.07-18.24L348.07-18.24Q348.07-19.24 347.43-20.09 346.78-20.95 345.46-21.46 344.14-21.97 342.19-21.97L342.19-21.97Q339.5-21.97 337.12-20.5 334.74-19.02 333.28-16.32 331.81-13.62 331.81-10.13L331.81-10.13Q331.81-7.2 333.01-4.71 334.21-2.22 336.4-0.74 338.6 0.73 341.46 0.73L341.46 0.73ZM353.42-17.77L353.42-6.52Q353.42-2.78 354.87-1.11 356.32 0.56 358.86 0.56L358.86 0.56Q363.26 0.56 365.84-3.2L365.84-3.2 366.16-3.2 366.16-2.98Q366.16-1.39 367.08-0.42 367.99 0.56 369.75 0.56L369.75 0.56Q370.82 0.56 371.56 0.46 372.29 0.37 373.44 0.1L373.44 0.1 373.66-1.93 372.53-2.17Q371.53-2.39 371.02-2.64 370.51-2.88 370.2-3.48 369.9-4.08 369.9-5.25L369.9-5.25 369.9-20.97 369.38-21.56 362.21-20.9 361.96-18.65 365.84-17.63 365.84-4.66Q364.96-3.76 363.9-3.27 362.84-2.78 361.3-2.78L361.3-2.78Q357.54-2.78 357.54-7.74L357.54-7.74 357.54-20.97 356.93-21.56 350.39-21.04 350.05-19.12 353.42-17.77ZM388.5 0L388.74-2.12 383.05-2.95 383.05-12.3Q383.3-14.04 384.02-15.23 384.74-16.43 385.62-17.03 386.5-17.63 387.23-17.63L387.23-17.63Q387.94-17.63 388.72-17.37 389.5-17.11 390.21-16.67L390.21-16.67Q391.6-17.85 391.6-19.38L391.6-19.38Q391.6-20.48 390.84-21.3 390.08-22.12 388.89-22.12L388.89-22.12Q387.79-22.12 386.67-21.37 385.54-20.63 384.54-19.14 383.54-17.65 382.91-15.53L382.91-15.53 382.44-15.53 382.93-21.14 382.37-21.73 375.36-20.83 375.02-18.97 379-17.77 379-2.78 375.26-1.81 375.02 0 388.5 0ZM398.7-26.12Q399.48-26.12 400.18-26.53 400.87-26.93 401.28-27.61 401.68-28.3 401.68-29.1L401.68-29.1Q401.68-30.27 400.8-31.08 399.92-31.88 398.7-31.88L398.7-31.88Q397.53-31.88 396.66-31.09 395.79-30.3 395.79-29.15L395.79-29.15Q395.79-28.34 396.19-27.65 396.58-26.95 397.25-26.54 397.92-26.12 398.7-26.12L398.7-26.12ZM392.89 0L404.61 0 404.88-1.95 400.97-2.83 400.97-21 400.36-21.61 393.5-21.04 393.18-19.19 396.87-17.85 396.87-2.83 393.18-1.93 392.89 0ZM408.93-18.63L408.83-6.35Q408.8-2.54 410.18-0.99 411.56 0.56 414.03 0.56L414.03 0.56Q416.08 0.56 417.79-0.39 419.5-1.34 420.65-3.03L420.65-3.03 420.13-4.35Q420.13-4.32 419.56-3.96 418.99-3.59 418.2-3.28 417.42-2.98 416.62-2.98L416.62-2.98Q415.32-2.98 414.54-3.42 413.76-3.86 413.39-4.91 413.03-5.96 413.03-7.79L413.03-7.79 413.1-18.58 419.84-18.58 420.06-20.73 413.15-20.73 413.15-26.54 411.86-26.54Q410.54-24.73 408.93-22.95 407.32-21.17 405.83-19.95L405.83-19.95 405.83-18.63 408.93-18.63ZM424.94 9.28Q426.84 9.28 428.19 8.57 429.53 7.86 430.7 6.15 431.87 4.44 433.14 1.29L433.14 1.29 441.22-18.51 443.69-19.51 443.86-21.31 435.51-21.31 435.17-19.48 438.37-18.46 433.09-5.42 428.11-18.58 431.21-19.51 431.43-21.31 421.18-21.31 420.91-19.43 423.94-18.51 430.9 0 430.41 1.2Q429.53 3.37 428.49 4.05 427.45 4.74 426.23 4.74L426.23 4.74Q425.28 4.74 424.42 4.43 423.55 4.13 422.55 3.44L422.55 3.44Q421.77 4.13 421.47 4.83 421.18 5.54 421.18 6.37L421.18 6.37Q421.18 7.08 421.66 7.75 422.13 8.42 423 8.85 423.87 9.28 424.94 9.28L424.94 9.28ZM457.87-26.12Q458.65-26.12 459.35-26.53 460.04-26.93 460.45-27.61 460.85-28.3 460.85-29.1L460.85-29.1Q460.85-30.27 459.97-31.08 459.09-31.88 457.87-31.88L457.87-31.88Q456.7-31.88 455.83-31.09 454.96-30.3 454.96-29.15L454.96-29.15Q454.96-28.34 455.35-27.65 455.75-26.95 456.42-26.54 457.09-26.12 457.87-26.12L457.87-26.12ZM452.06 0L463.78 0 464.05-1.95 460.14-2.83 460.14-21 459.53-21.61 452.67-21.04 452.35-19.19 456.04-17.85 456.04-2.83 452.35-1.93 452.06 0ZM476.54 0L476.89-1.93 473.25-2.78 473.25-16.48Q474.15-17.48 475.42-18.03 476.69-18.58 478.06-18.58L478.06-18.58Q479.99-18.58 481.15-17.47 482.31-16.36 482.31-14.09L482.31-14.09 482.31-2.78 478.94-1.78 478.69 0 489.65 0 489.9-1.93 486.38-2.78 486.38-15.04Q486.38-18.33 484.87-20.14 483.36-21.95 480.5-21.95L480.5-21.95Q478.35-21.95 476.45-20.85 474.54-19.75 473.15-18.09L473.15-18.09 472.91-18.09 473.32-21.22 472.91-21.68 465.63-20.73 465.39-18.87 469.15-17.6 469.15-2.78 465.46-1.78 465.22 0 476.54 0ZM498.49 0.83Q500.37 0.83 502.12 0.02 503.86-0.78 504.93-2.21 506.01-3.64 506.01-5.37L506.01-5.37Q506.01-7.01 505.15-8.26 504.3-9.52 503.09-10.38 501.88-11.23 499.93-12.3L499.93-12.3Q498.32-13.21 497.42-13.82 496.51-14.43 495.9-15.22 495.29-16.02 495.29-16.99L495.29-16.99Q495.29-18.21 496.04-19.07 496.78-19.92 498.03-19.92L498.03-19.92Q499.44-19.92 500.42-18.54 501.39-17.16 501.83-14.38L501.83-14.38Q503.42-14.48 504.34-15.36 505.25-16.24 505.25-17.63L505.25-17.63Q505.25-18.85 504.51-19.84 503.76-20.83 502.4-21.4 501.03-21.97 499.27-21.97L499.27-21.97Q496.95-21.97 495.3-20.98 493.66-20 492.83-18.51 492-17.02 492-15.5L492-15.5Q492-13.75 492.89-12.4 493.78-11.06 495.03-10.14 496.29-9.23 498.29-8.08L498.29-8.08Q499.76-7.25 500.58-6.7 501.39-6.15 501.93-5.48 502.47-4.81 502.47-4.03L502.47-4.03Q502.47-2.76 501.57-2.16 500.66-1.56 499.25-1.56L499.25-1.56Q497.73-1.56 496.46-2.77 495.19-3.98 494.39-6.37L494.39-6.37Q493.02-6.27 492.22-5.3 491.41-4.32 491.41-2.95L491.41-2.95Q491.41-1.98 492.29-1.1 493.17-0.22 494.78 0.31 496.39 0.83 498.49 0.83L498.49 0.83ZM510.99-18.63L510.89-6.35Q510.87-2.54 512.24-0.99 513.62 0.56 516.09 0.56L516.09 0.56Q518.14 0.56 519.85-0.39 521.56-1.34 522.71-3.03L522.71-3.03 522.19-4.35Q522.19-4.32 521.62-3.96 521.05-3.59 520.26-3.28 519.48-2.98 518.68-2.98L518.68-2.98Q517.38-2.98 516.6-3.42 515.82-3.86 515.45-4.91 515.09-5.96 515.09-7.79L515.09-7.79 515.16-18.58 521.9-18.58 522.12-20.73 515.21-20.73 515.21-26.54 513.92-26.54Q512.6-24.73 510.99-22.95 509.38-21.17 507.89-19.95L507.89-19.95 507.89-18.63 510.99-18.63ZM529.76-26.12Q530.54-26.12 531.24-26.53 531.93-26.93 532.33-27.61 532.74-28.3 532.74-29.1L532.74-29.1Q532.74-30.27 531.86-31.08 530.98-31.88 529.76-31.88L529.76-31.88Q528.59-31.88 527.72-31.09 526.85-30.3 526.85-29.15L526.85-29.15Q526.85-28.34 527.24-27.65 527.63-26.95 528.31-26.54 528.98-26.12 529.76-26.12L529.76-26.12ZM523.95 0L535.67 0 535.94-1.95 532.03-2.83 532.03-21 531.42-21.61 524.56-21.04 524.24-19.19 527.93-17.85 527.93-2.83 524.24-1.93 523.95 0ZM539.99-18.63L539.89-6.35Q539.86-2.54 541.24-0.99 542.62 0.56 545.09 0.56L545.09 0.56Q547.14 0.56 548.85-0.39 550.56-1.34 551.7-3.03L551.7-3.03 551.19-4.35Q551.19-4.32 550.62-3.96 550.04-3.59 549.26-3.28 548.48-2.98 547.68-2.98L547.68-2.98Q546.38-2.98 545.6-3.42 544.82-3.86 544.45-4.91 544.09-5.96 544.09-7.79L544.09-7.79 544.16-18.58 550.9-18.58 551.12-20.73 544.21-20.73 544.21-26.54 542.92-26.54Q541.6-24.73 539.99-22.95 538.37-21.17 536.89-19.95L536.89-19.95 536.89-18.63 539.99-18.63ZM555.88-17.77L555.88-6.52Q555.88-2.78 557.33-1.11 558.78 0.56 561.32 0.56L561.32 0.56Q565.72 0.56 568.3-3.2L568.3-3.2 568.62-3.2 568.62-2.98Q568.62-1.39 569.54-0.42 570.45 0.56 572.21 0.56L572.21 0.56Q573.28 0.56 574.02 0.46 574.75 0.37 575.9 0.1L575.9 0.1 576.12-1.93 574.99-2.17Q573.99-2.39 573.48-2.64 572.97-2.88 572.66-3.48 572.36-4.08 572.36-5.25L572.36-5.25 572.36-20.97 571.84-21.56 564.67-20.9 564.42-18.65 568.3-17.63 568.3-4.66Q567.42-3.76 566.36-3.27 565.3-2.78 563.76-2.78L563.76-2.78Q560-2.78 560-7.74L560-7.74 560-20.97 559.39-21.56 552.85-21.04 552.51-19.12 555.88-17.77ZM580.29-18.63L580.19-6.35Q580.17-2.54 581.55-0.99 582.93 0.56 585.39 0.56L585.39 0.56Q587.44 0.56 589.15-0.39 590.86-1.34 592.01-3.03L592.01-3.03 591.49-4.35Q591.49-4.32 590.92-3.96 590.35-3.59 589.57-3.28 588.78-2.98 587.98-2.98L587.98-2.98Q586.69-2.98 585.9-3.42 585.12-3.86 584.76-4.91 584.39-5.96 584.39-7.79L584.39-7.79 584.46-18.58 591.2-18.58 591.42-20.73 584.51-20.73 584.51-26.54 583.22-26.54Q581.9-24.73 580.29-22.95 578.68-21.17 577.19-19.95L577.19-19.95 577.19-18.63 580.29-18.63ZM602.82 0.73Q605.21 0.73 607.3-0.13 609.39-1 610.85-2.54L610.85-2.54 610.34-3.83Q609.14-3.2 608.24-2.91 607.34-2.61 606.65-2.55 605.97-2.49 604.8-2.49L604.8-2.49Q602.65-2.49 601.15-3.72 599.65-4.96 598.87-6.88 598.08-8.81 597.99-10.86L597.99-10.86 609.8-11.01Q609.95-11.65 610.07-12.63 610.19-13.62 610.19-14.18L610.19-14.18Q610.19-16.67 609.33-18.42 608.46-20.17 606.97-21.06 605.48-21.95 603.67-21.95L603.67-21.95Q601.23-21.95 598.91-20.56 596.59-19.17 595.12-16.55 593.64-13.94 593.64-10.45L593.64-10.45Q593.64-6.91 594.93-4.37 596.23-1.83 598.34-0.55 600.45 0.73 602.82 0.73L602.82 0.73ZM602.48-19.56Q605.85-19.56 605.85-15.01L605.85-15.01Q605.85-14.65 605.81-14.12 605.77-13.6 605.7-13.33L605.7-13.33 598.04-12.77Q598.16-15.01 598.83-16.54 599.5-18.07 600.48-18.81 601.45-19.56 602.48-19.56L602.48-19.56ZM620.59-28.52L625.03-27.49 625.03-2.95 620.95-1.81 620.76 0 633.94 0 634.19-1.95 629.77-2.78 629.77-27.59 633.89-28.52 634.14-30.37 620.86-30.37 620.59-28.52ZM638.7 0.76Q639.51 0.76 640.19 0.35 640.87-0.05 641.28-0.72 641.68-1.39 641.68-2.2L641.68-2.2Q641.68-3.37 640.8-4.19 639.92-5 638.7-5L638.7-5Q637.53-5 636.68-4.21 635.82-3.42 635.82-2.25L635.82-2.25Q635.82-1 636.66-0.12 637.51 0.76 638.7 0.76L638.7 0.76ZM643.95-30.37L644.14-22.51 646.36-22.19 647.66-28.13 654.86-28.13 654.86-2.95 650.74-1.81 650.56 0 663.72 0 664.07-1.95 659.55-2.78 659.55-28.13 666.99-28.13 667.92-22.49 670.24-22.12 671.07-30.37 643.95-30.37Z" opacity="1" transform="matrix(1,0,0,1,0,0)" fill="#ff4136" class="slogan-text-1" data-fill-palette-color="secondary" id="text-1"></path></svg></g></svg></g></svg></g></svg></g><g></g></svg></g></svg></g></svg></g><g mask="url(#c6ecf7b2-3edf-49da-a01d-adaf1554d8f7)"><g transform="matrix(3.3840763948256534, 0, 0, 3.3840763948256534, 62.39694420697384, 0.9999999999999858)"><svg xmlns="http://www.w3.org/2000/svg" xmlns:xlink="http://www.w3.org/1999/xlink" version="1.1" x="0" y="0" viewBox="10.25 14.461000442504883 80 72.45699310302734" enable-background="new 0 0 100 100" xml:space="preserve" height="72.45699310302734" width="80" class="icon-none" data-fill-palette-color="accent" id="none"></svg></g></g></svg></g><defs></defs><mask id="2dbe248f-b572-481d-898a-0ef73d0de252"><g id="SvgjsG2494"><svg viewBox="0 0 395.52 247.2" height="247.2" width="395.52"><g><svg></svg></g><g><svg viewBox="0 0 395.52 247.2" height="247.2" width="395.52"><mask id="SvgjsMask2493"><g transform="matrix(1,0,0,1,49.68134177994452,37.08)"><svg viewBox="0 0 296.15731644011095 173.04" height="173.04" width="296.15731644011095"><g><svg viewBox="0 0 296.15731644011095 173.04" height="173.04" width="296.15731644011095"><g><svg viewBox="0 0 316.416 184.87682593204514" height="173.04" width="296.15731644011095"><g><svg viewBox="0 0 316.416 184.87682593204514" height="184.87682593204514" width="316.416"><g id="SvgjsG2492"><svg viewBox="0 0 316.416 184.87682593204514" height="184.87682593204514" width="316.416" id="SvgjsSvg2491"><g><svg viewBox="0 0 316.416 136.4554919933738" height="136.4554919933738" width="316.416"><g transform="matrix(1,0,0,1,0,0)"><svg width="316.416" viewBox="-1 -36.04999923706055 91.54000091552734 40.04999923706055" height="136.4554919933738" data-palette-color="url(#8a264664-11a1-4e8f-bb8c-49626436ebdc)"></svg></g></svg></g><g transform="matrix(1,0,0,1,3.5,162.89478594028492)"><svg viewBox="0 0 309.416 21.982039991760217" height="21.982039991760217" width="309.416"><g transform="matrix(1,0,0,1,0,0)"><svg width="309.416" viewBox="-3.759999990463257 -35.8799991607666 678.8300170898438 49.15999984741211" height="21.982039991760217" data-palette-color="#ff4136"></svg></g></svg></g></svg></g></svg></g><g></g></svg></g></svg></g></svg></g></mask><g transform="matrix(1,0,0,1,49.68134177994452,37.08)"><svg viewBox="0 0 296.15731644011095 173.04" height="173.04" width="296.15731644011095"><g><svg viewBox="0 0 296.15731644011095 173.04" height="173.04" width="296.15731644011095"><g><svg viewBox="0 0 316.416 184.87682593204514" height="173.04" width="296.15731644011095"><g><svg viewBox="0 0 316.416 184.87682593204514" height="184.87682593204514" width="316.416"><g id="SvgjsG2488"><svg viewBox="0 0 316.416 184.87682593204514" height="184.87682593204514" width="316.416" id="SvgjsSvg2487"><g><svg viewBox="0 0 316.416 136.4554919933738" height="136.4554919933738" width="316.416"><g transform="matrix(1,0,0,1,0,0)"><svg width="316.416" viewBox="-1 -36.04999923706055 91.54000091552734 40.04999923706055" height="136.4554919933738" data-palette-color="url(#8a264664-11a1-4e8f-bb8c-49626436ebdc)"><path d="M9.6 0L3.5 0 3.5-27.7 3-31.7 9.6-31.7 9.6 0ZM35.4 0L21.25 0Q17.9 0 16.5-0.35 15.1-0.7 15.1-1.05L15.1-1.05 16.6-4.8Q18.05-4.65 21.92-4.48 25.8-4.3 31.5-4.3L31.5-4.3 34-4.3Q35.25-4.3 35.57-4.98 35.9-5.65 35.9-6.8L35.9-6.8Q35.9-7.95 35.52-8.65 35.15-9.35 34-9.35L34-9.35 21.7-9.35Q18.2-9.35 16.65-10.68 15.1-12 15.1-14.65L15.1-14.65 15.1-16.65Q15.1-17.35 15.25-18.3 15.4-19.25 16-20.2 16.6-21.15 17.95-21.78 19.3-22.4 21.7-22.4L21.7-22.4 35.5-22.4Q38.5-22.4 39.75-22.05 41-21.7 41-21.35L41-21.35 40.5-17.6Q39.05-17.75 35.15-17.93 31.25-18.1 25.6-18.1L25.6-18.1 23.1-18.1Q21.85-18.1 21.52-17.43 21.2-16.75 21.2-15.85L21.2-15.85Q21.2-14.9 21.52-14.28 21.85-13.65 23.1-13.65L23.1-13.65 35.4-13.65Q38.8-13.65 40.4-12.25 42-10.85 42-8.7L42-8.7 42-5.75Q42-4.85 41.87-3.85 41.75-2.85 41.15-1.98 40.55-1.1 39.2-0.55 37.85 0 35.4 0L35.4 0ZM67.3 0L53.15 0Q49.8 0 48.4-0.35 47-0.7 47-1.05L47-1.05 48.5-4.8Q49.95-4.65 53.82-4.48 57.7-4.3 63.4-4.3L63.4-4.3 65.9-4.3Q67.15-4.3 67.47-4.98 67.8-5.65 67.8-6.8L67.8-6.8Q67.8-7.95 67.42-8.65 67.05-9.35 65.9-9.35L65.9-9.35 53.6-9.35Q50.1-9.35 48.55-10.68 47-12 47-14.65L47-14.65 47-16.65Q47-17.35 47.15-18.3 47.3-19.25 47.9-20.2 48.5-21.15 49.85-21.78 51.2-22.4 53.6-22.4L53.6-22.4 67.4-22.4Q70.4-22.4 71.65-22.05 72.9-21.7 72.9-21.35L72.9-21.35 72.4-17.6Q70.95-17.75 67.05-17.93 63.15-18.1 57.5-18.1L57.5-18.1 55-18.1Q53.75-18.1 53.42-17.43 53.1-16.75 53.1-15.85L53.1-15.85Q53.1-14.9 53.42-14.28 53.75-13.65 55-13.65L55-13.65 67.3-13.65Q70.7-13.65 72.3-12.25 73.9-10.85 73.9-8.7L73.9-8.7 73.9-5.75Q73.9-4.85 73.77-3.85 73.65-2.85 73.05-1.98 72.45-1.1 71.09-0.55 69.75 0 67.3 0L67.3 0ZM82.94-25.55L82.94-25.55Q81.09-25.55 80.24-26.3 79.39-27.05 79.39-28.8L79.39-28.8Q79.39-30.6 80.22-31.33 81.04-32.05 82.94-32.05L82.94-32.05Q84.84-32.05 85.69-31.33 86.54-30.6 86.54-28.8L86.54-28.8Q86.54-27.1 85.69-26.33 84.84-25.55 82.94-25.55ZM85.99 0L79.89 0 79.89-22.4 85.99-22.4 85.99 0Z" opacity="1" transform="matrix(1,0,0,1,0,0)" fill="white" class="wordmark-text-0" id="SvgjsPath2486"></path></svg></g></svg></g><g transform="matrix(1,0,0,1,3.5,162.89478594028492)"><svg viewBox="0 0 309.416 21.982039991760217" height="21.982039991760217" width="309.416"><g transform="matrix(1,0,0,1,0,0)"><svg width="309.416" viewBox="-3.759999990463257 -35.8799991607666 678.8300170898438 49.15999984741211" height="21.982039991760217" data-palette-color="#ff4136"></svg></g></svg></g></svg></g></svg></g><g></g></svg></g></svg></g></svg></g><g mask="url(#c6ecf7b2-3edf-49da-a01d-adaf1554d8f7)"><g transform="matrix(3.3840763948256534, 0, 0, 3.3840763948256534, 62.39694420697384, 0.9999999999999858)"><svg xmlns="http://www.w3.org/2000/svg" xmlns:xlink="http://www.w3.org/1999/xlink" version="1.1" x="0" y="0" viewBox="10.25 14.461000442504883 80 72.45699310302734" enable-background="new 0 0 100 100" xml:space="preserve" height="72.45699310302734" width="80" class="icon-none" data-fill-palette-color="accent" id="SvgjsSvg2484"></svg></g></g></svg></g><defs><mask></mask></defs></svg></g></mask><linearGradient x1="0" x2="1" y1="0.5" y2="0.5" id="8a264664-11a1-4e8f-bb8c-49626436ebdc"><stop stop-color="#ffa62e" offset="0"></stop><stop stop-color="#f71b3d" offset="1"></stop></linearGradient><rect width="395.5199890136719" height="247.1999969482422" fill="url(#8a264664-11a1-4e8f-bb8c-49626436ebdc)" mask="url(#2dbe248f-b572-481d-898a-0ef73d0de252)" data-fill-palette-color="primary"></rect><mask id="c6b9ea68-aec7-4814-a9ee-9b6bef19b3c6"><g id="SvgjsG2512"><svg viewBox="0 0 395.52 247.2" height="247.2" width="395.52"><g><svg></svg></g><g><svg viewBox="0 0 395.52 247.2" height="247.2" width="395.52"><mask id="SvgjsMask2511"><g transform="matrix(1,0,0,1,49.68134177994452,37.08)"><svg viewBox="0 0 296.15731644011095 173.04" height="173.04" width="296.15731644011095"><g><svg viewBox="0 0 296.15731644011095 173.04" height="173.04" width="296.15731644011095"><g><svg viewBox="0 0 316.416 184.87682593204514" height="173.04" width="296.15731644011095"><g><svg viewBox="0 0 316.416 184.87682593204514" height="184.87682593204514" width="316.416"><g id="SvgjsG2510"><svg viewBox="0 0 316.416 184.87682593204514" height="184.87682593204514" width="316.416" id="SvgjsSvg2509"><g><svg viewBox="0 0 316.416 136.4554919933738" height="136.4554919933738" width="316.416"><g transform="matrix(1,0,0,1,0,0)"><svg width="316.416" viewBox="-1 -36.04999923706055 91.54000091552734 40.04999923706055" height="136.4554919933738" data-palette-color="url(#8a264664-11a1-4e8f-bb8c-49626436ebdc)"></svg></g></svg></g><g transform="matrix(1,0,0,1,3.5,162.89478594028492)"><svg viewBox="0 0 309.416 21.982039991760217" height="21.982039991760217" width="309.416"><g transform="matrix(1,0,0,1,0,0)"><svg width="309.416" viewBox="-3.759999990463257 -35.8799991607666 678.8300170898438 49.15999984741211" height="21.982039991760217" data-palette-color="#ff4136"></svg></g></svg></g></svg></g></svg></g><g></g></svg></g></svg></g></svg></g></mask><g transform="matrix(1,0,0,1,49.68134177994452,37.08)"><svg viewBox="0 0 296.15731644011095 173.04" height="173.04" width="296.15731644011095"><g><svg viewBox="0 0 296.15731644011095 173.04" height="173.04" width="296.15731644011095"><g><svg viewBox="0 0 316.416 184.87682593204514" height="173.04" width="296.15731644011095"><g><svg viewBox="0 0 316.416 184.87682593204514" height="184.87682593204514" width="316.416"><g id="SvgjsG2506"><svg viewBox="0 0 316.416 184.87682593204514" height="184.87682593204514" width="316.416" id="SvgjsSvg2505"><g><svg viewBox="0 0 316.416 136.4554919933738" height="136.4554919933738" width="316.416"><g transform="matrix(1,0,0,1,0,0)"><svg width="316.416" viewBox="-1 -36.04999923706055 91.54000091552734 40.04999923706055" height="136.4554919933738" data-palette-color="url(#8a264664-11a1-4e8f-bb8c-49626436ebdc)"></svg></g></svg></g><g transform="matrix(1,0,0,1,3.5,162.89478594028492)"><svg viewBox="0 0 309.416 21.982039991760217" height="21.982039991760217" width="309.416"><g transform="matrix(1,0,0,1,0,0)"><svg width="309.416" viewBox="-3.759999990463257 -35.8799991607666 678.8300170898438 49.15999984741211" height="21.982039991760217" data-palette-color="#ff4136"></svg></g></svg></g></svg></g></svg></g><g></g></svg></g></svg></g></svg></g><g mask="url(#c6ecf7b2-3edf-49da-a01d-adaf1554d8f7)"><g transform="matrix(3.3840763948256534, 0, 0, 3.3840763948256534, 62.39694420697384, 0.9999999999999858)"><svg xmlns="http://www.w3.org/2000/svg" xmlns:xlink="http://www.w3.org/1999/xlink" version="1.1" x="0" y="0" viewBox="10.25 14.461000442504883 80 72.45699310302734" enable-background="new 0 0 100 100" xml:space="preserve" height="72.45699310302734" width="80" class="icon-none" data-fill-palette-color="accent" id="SvgjsSvg2503"><g fill="white"><path d="M84.395 38.696h-0.544C79.155 24.632 65.872 14.461 50.25 14.461S21.345 24.632 16.649 38.696h-0.544c-3.221 0-5.855 2.635-5.855 5.854v10.662c0 3.221 2.635 5.855 5.855 5.855h0.96c3.221 0 5.854-2.635 5.854-5.855V44.551c0-2.12-1.153-3.97-2.854-4.997 4.304-12.539 16.204-21.58 30.185-21.58s25.881 9.041 30.185 21.58c-1.701 1.027-2.854 2.877-2.854 4.997v10.662c0 2.12 1.153 3.969 2.854 4.997-3.753 10.935-13.283 19.203-24.934 21.141-0.571-0.709-1.438-1.174-2.414-1.174h-5.674c-1.714 0-3.114 1.4-3.114 3.114v0.512c0 1.713 1.4 3.115 3.114 3.115h5.674c1.353 0 2.499-0.88 2.928-2.092 13.061-2.147 23.731-11.461 27.836-23.758h0.544c3.221 0 5.855-2.635 5.855-5.855V44.551C90.25 41.331 87.615 38.696 84.395 38.696z" fill="white"></path></g><path d="M72.496 49.883c0-0.646 0.523-1.171 1.171-1.171h2.802c-0.173-3.929-1.211-7.63-2.925-10.925l-2.43 1.401c-0.184 0.106-0.386 0.157-0.584 0.157-0.405 0-0.799-0.21-1.016-0.585-0.323-0.561-0.132-1.276 0.429-1.601l2.427-1.4c-2.054-3.21-4.787-5.943-7.996-7.998l-1.402 2.428c-0.217 0.376-0.61 0.586-1.016 0.586-0.199 0-0.4-0.051-0.585-0.157-0.56-0.323-0.752-1.04-0.428-1.6l1.403-2.43c-3.296-1.714-6.997-2.753-10.925-2.926v2.801c0 0.646-0.525 1.171-1.172 1.171s-1.172-0.524-1.172-1.171v-2.801c-3.928 0.173-7.629 1.212-10.925 2.926l1.401 2.427c0.323 0.56 0.131 1.276-0.429 1.6-0.184 0.106-0.386 0.157-0.584 0.157-0.405 0-0.799-0.21-1.016-0.586l-1.4-2.423c-3.21 2.054-5.942 4.786-7.996 7.996l2.424 1.399c0.561 0.324 0.753 1.04 0.43 1.6-0.217 0.376-0.61 0.586-1.016 0.586-0.199 0-0.4-0.051-0.585-0.157l-2.427-1.4c-1.714 3.295-2.752 6.996-2.925 10.925h2.8c0.646 0 1.17 0.524 1.17 1.171s-0.523 1.172-1.17 1.172l-2.8 0.001c0.173 3.928 1.211 7.63 2.927 10.924l2.425-1.401c0.558-0.323 1.276-0.132 1.601 0.429 0.323 0.561 0.131 1.276-0.43 1.601l-2.422 1.398c2.053 3.21 4.785 5.942 7.995 7.996l1.399-2.423c0.324-0.561 1.039-0.753 1.6-0.429 0.56 0.324 0.752 1.04 0.429 1.6l-1.399 2.426c3.295 1.714 6.996 2.752 10.923 2.925V73.3c0-0.646 0.525-1.17 1.172-1.17s1.172 0.523 1.172 1.17v2.801c3.927-0.173 7.628-1.211 10.923-2.925l-1.4-2.427c-0.323-0.56-0.132-1.275 0.429-1.601 0.559-0.323 1.275-0.132 1.6 0.43l1.4 2.424c3.21-2.054 5.942-4.786 7.995-7.996l-2.423-1.4c-0.561-0.323-0.753-1.039-0.43-1.6s1.039-0.751 1.6-0.429l2.427 1.402c1.716-3.295 2.754-6.997 2.927-10.925h-2.802C73.02 51.055 72.496 50.529 72.496 49.883zM66.737 41.832l-13.465 7.509c0.031 0.177 0.055 0.355 0.055 0.541 0 1.699-1.378 3.077-3.077 3.077-1.459 0-2.675-1.019-2.991-2.382l-11.684-6.095c-0.979-0.511-1.359-1.719-0.849-2.698 0.512-0.979 1.721-1.36 2.698-0.849l11.682 6.094c0.354-0.142 0.739-0.225 1.144-0.225 0.788 0 1.499 0.305 2.044 0.793l13.469-7.512c0.482-0.269 1.092-0.097 1.36 0.386C67.393 40.954 67.22 41.563 66.737 41.832z" fill="white"></path></svg></g></g></svg></g><defs><mask></mask></defs><mask><g id="SvgjsG2502"><svg viewBox="0 0 395.52 247.2" height="247.2" width="395.52"><g><svg></svg></g><g><svg viewBox="0 0 395.52 247.2" height="247.2" width="395.52"><mask id="SvgjsMask2501"><g transform="matrix(1,0,0,1,49.68134177994452,37.08)"><svg viewBox="0 0 296.15731644011095 173.04" height="173.04" width="296.15731644011095"><g><svg viewBox="0 0 296.15731644011095 173.04" height="173.04" width="296.15731644011095"><g><svg viewBox="0 0 316.416 184.87682593204514" height="173.04" width="296.15731644011095"><g><svg viewBox="0 0 316.416 184.87682593204514" height="184.87682593204514" width="316.416"><g id="SvgjsG2500"><svg viewBox="0 0 316.416 184.87682593204514" height="184.87682593204514" width="316.416" id="SvgjsSvg2499"><g><svg viewBox="0 0 316.416 136.4554919933738" height="136.4554919933738" width="316.416"><g transform="matrix(1,0,0,1,0,0)"><svg width="316.416" viewBox="-1 -36.04999923706055 91.54000091552734 40.04999923706055" height="136.4554919933738" data-palette-color="url(#8a264664-11a1-4e8f-bb8c-49626436ebdc)"></svg></g></svg></g><g transform="matrix(1,0,0,1,3.5,162.89478594028492)"><svg viewBox="0 0 309.416 21.982039991760217" height="21.982039991760217" width="309.416"><g transform="matrix(1,0,0,1,0,0)"><svg width="309.416" viewBox="-3.759999990463257 -35.8799991607666 678.8300170898438 49.15999984741211" height="21.982039991760217" data-palette-color="#ff4136"></svg></g></svg></g></svg></g></svg></g><g></g></svg></g></svg></g></svg></g></mask><g transform="matrix(1,0,0,1,49.68134177994452,37.08)"><svg viewBox="0 0 296.15731644011095 173.04" height="173.04" width="296.15731644011095"><g><svg viewBox="0 0 296.15731644011095 173.04" height="173.04" width="296.15731644011095"><g><svg viewBox="0 0 316.416 184.87682593204514" height="173.04" width="296.15731644011095"><g><svg viewBox="0 0 316.416 184.87682593204514" height="184.87682593204514" width="316.416"><g id="SvgjsG2498"><svg viewBox="0 0 316.416 184.87682593204514" height="184.87682593204514" width="316.416" id="SvgjsSvg2497"><g><svg viewBox="0 0 316.416 136.4554919933738" height="136.4554919933738" width="316.416"><g transform="matrix(1,0,0,1,0,0)"><svg width="316.416" viewBox="-1 -36.04999923706055 91.54000091552734 40.04999923706055" height="136.4554919933738" data-palette-color="url(#8a264664-11a1-4e8f-bb8c-49626436ebdc)"></svg></g></svg></g><g transform="matrix(1,0,0,1,3.5,162.89478594028492)"><svg viewBox="0 0 309.416 21.982039991760217" height="21.982039991760217" width="309.416"><g transform="matrix(1,0,0,1,0,0)"><svg width="309.416" viewBox="-3.759999990463257 -35.8799991607666 678.8300170898438 49.15999984741211" height="21.982039991760217" data-palette-color="#ff4136"></svg></g></svg></g></svg></g></svg></g><g></g></svg></g></svg></g></svg></g><g mask="url(#c6ecf7b2-3edf-49da-a01d-adaf1554d8f7)"><g transform="matrix(3.3840763948256534, 0, 0, 3.3840763948256534, 62.39694420697384, 0.9999999999999858)"><svg xmlns="http://www.w3.org/2000/svg" xmlns:xlink="http://www.w3.org/1999/xlink" version="1.1" x="0" y="0" viewBox="10.25 14.461000442504883 80 72.45699310302734" enable-background="new 0 0 100 100" xml:space="preserve" height="72.45699310302734" width="80" class="icon-none" data-fill-palette-color="accent" id="SvgjsSvg2495"></svg></g></g></svg></g><defs><mask></mask></defs></svg></g></mask></svg></g></mask><linearGradient x1="0" x2="1" y1="0.5" y2="0.5" id="e08572d3-f058-4fac-a78d-7a89e0366796"><stop stop-color="#f00b51" offset="0"></stop><stop stop-color="#730062" offset="1"></stop></linearGradient><rect width="395.5199890136719" height="247.1999969482422" fill="url(#e08572d3-f058-4fac-a78d-7a89e0366796)" mask="url(#c6b9ea68-aec7-4814-a9ee-9b6bef19b3c6)" data-fill-palette-color="accent"></rect></svg><rect width="395.52" height="247.2" fill="none" stroke="none" visibility="hidden"></rect></g></svg></g></svg>